solid 
   facet normal -9.396926e-01 -3.420201e-01 0.000000e+00
      outer loop
         vertex -1.500000e+00 1.836970e-16 1.500000e+02
         vertex -1.500000e+00 1.836970e-16 0.000000e+00
         vertex -1.149067e+00 -9.641814e-01 0.000000e+00
      endloop
   endfacet
   facet normal 1.736482e-01 -9.848078e-01 0.000000e+00
      outer loop
         vertex -2.604723e-01 -1.477212e+00 0.000000e+00
         vertex 7.500000e-01 -1.299038e+00 0.000000e+00
         vertex 7.500000e-01 -1.299038e+00 1.500000e+02
      endloop
   endfacet
   facet normal 1.000000e+00 0.000000e+00 -0.000000e+00
      outer loop
         vertex 1.409539e+00 -5.130302e-01 0.000000e+00
         vertex 1.409539e+00 5.130302e-01 0.000000e+00
         vertex 1.409539e+00 5.130302e-01 1.500000e+02
      endloop
   endfacet
   facet normal 1.736482e-01 9.848078e-01 -0.000000e+00
      outer loop
         vertex 7.500000e-01 1.299038e+00 0.000000e+00
         vertex -2.604723e-01 1.477212e+00 0.000000e+00
         vertex -2.604723e-01 1.477212e+00 1.500000e+02
      endloop
   endfacet
   facet normal -9.396926e-01 3.420201e-01 0.000000e+00
      outer loop
         vertex -1.149067e+00 9.641814e-01 0.000000e+00
         vertex -1.500000e+00 1.836970e-16 0.000000e+00
         vertex -1.500000e+00 1.836970e-16 1.500000e+02
      endloop
   endfacet
   facet normal -5.000000e-01 8.660254e-01 0.000000e+00
      outer loop
         vertex -1.149067e+00 9.641814e-01 1.500000e+02
         vertex -2.604723e-01 1.477212e+00 1.500000e+02
         vertex -2.604723e-01 1.477212e+00 0.000000e+00
      endloop
   endfacet
   facet normal 7.660444e-01 6.427877e-01 0.000000e+00
      outer loop
         vertex 7.500000e-01 1.299038e+00 1.500000e+02
         vertex 1.409539e+00 5.130302e-01 1.500000e+02
         vertex 1.409539e+00 5.130302e-01 0.000000e+00
      endloop
   endfacet
   facet normal 7.660444e-01 -6.427877e-01 0.000000e+00
      outer loop
         vertex 1.409539e+00 -5.130302e-01 1.500000e+02
         vertex 7.500000e-01 -1.299038e+00 1.500000e+02
         vertex 7.500000e-01 -1.299038e+00 0.000000e+00
      endloop
   endfacet
   facet normal -5.000000e-01 -8.660254e-01 -0.000000e+00
      outer loop
         vertex -2.604723e-01 -1.477212e+00 1.500000e+02
         vertex -1.149067e+00 -9.641814e-01 1.500000e+02
         vertex -1.149067e+00 -9.641814e-01 0.000000e+00
      endloop
   endfacet
   facet normal -9.396926e-01 -3.420201e-01 0.000000e+00
      outer loop
         vertex -1.500000e+00 1.836970e-16 1.500000e+02
         vertex -1.149067e+00 -9.641814e-01 0.000000e+00
         vertex -1.149067e+00 -9.641814e-01 1.500000e+02
      endloop
   endfacet
   facet normal 1.736482e-01 9.848078e-01 0.000000e+00
      outer loop
         vertex 7.500000e-01 1.299038e+00 0.000000e+00
         vertex -2.604723e-01 1.477212e+00 1.500000e+02
         vertex 7.500000e-01 1.299038e+00 1.500000e+02
      endloop
   endfacet
   facet normal 7.660444e-01 6.427877e-01 0.000000e+00
      outer loop
         vertex 7.500000e-01 1.299038e+00 1.500000e+02
         vertex 1.409539e+00 5.130302e-01 0.000000e+00
         vertex 7.500000e-01 1.299038e+00 0.000000e+00
      endloop
   endfacet
   facet normal -5.000000e-01 -8.660254e-01 0.000000e+00
      outer loop
         vertex -1.149067e+00 -9.641814e-01 0.000000e+00
         vertex -2.604723e-01 -1.477212e+00 0.000000e+00
         vertex -2.604723e-01 -1.477212e+00 1.500000e+02
      endloop
   endfacet
   facet normal -5.000000e-01 8.660254e-01 0.000000e+00
      outer loop
         vertex -2.604723e-01 1.477212e+00 0.000000e+00
         vertex -1.149067e+00 9.641814e-01 0.000000e+00
         vertex -1.149067e+00 9.641814e-01 1.500000e+02
      endloop
   endfacet
   facet normal 1.000000e+00 -0.000000e+00 0.000000e+00
      outer loop
         vertex 1.409539e+00 5.130302e-01 1.500000e+02
         vertex 1.409539e+00 -5.130302e-01 1.500000e+02
         vertex 1.409539e+00 -5.130302e-01 0.000000e+00
      endloop
   endfacet
   facet normal 1.736482e-01 -9.848078e-01 0.000000e+00
      outer loop
         vertex -2.604723e-01 -1.477212e+00 0.000000e+00
         vertex 7.500000e-01 -1.299038e+00 1.500000e+02
         vertex -2.604723e-01 -1.477212e+00 1.500000e+02
      endloop
   endfacet
   facet normal -9.396926e-01 3.420201e-01 0.000000e+00
      outer loop
         vertex -1.149067e+00 9.641814e-01 1.500000e+02
         vertex -1.149067e+00 9.641814e-01 0.000000e+00
         vertex -1.500000e+00 1.836970e-16 1.500000e+02
      endloop
   endfacet
   facet normal 7.660444e-01 -6.427877e-01 0.000000e+00
      outer loop
         vertex 7.500000e-01 -1.299038e+00 0.000000e+00
         vertex 1.409539e+00 -5.130302e-01 0.000000e+00
         vertex 1.409539e+00 -5.130302e-01 1.500000e+02
      endloop
   endfacet
   facet normal -0.000000e+00 0.000000e+00 1.000000e+00
      outer loop
         vertex -1.149067e+00 9.641814e-01 1.500000e+02
         vertex -1.500000e+00 1.836970e-16 1.500000e+02
         vertex -1.149067e+00 -9.641814e-01 1.500000e+02
      endloop
   endfacet
   facet normal 0.000000e+00 0.000000e+00 1.000000e+00
      outer loop
         vertex -2.604723e-01 -1.477212e+00 1.500000e+02
         vertex 7.500000e-01 -1.299038e+00 1.500000e+02
         vertex -1.149067e+00 9.641814e-01 1.500000e+02
      endloop
   endfacet
   facet normal 0.000000e+00 0.000000e+00 1.000000e+00
      outer loop
         vertex 1.409539e+00 -5.130302e-01 1.500000e+02
         vertex 1.409539e+00 5.130302e-01 1.500000e+02
         vertex -1.149067e+00 9.641814e-01 1.500000e+02
      endloop
   endfacet
   facet normal 0.000000e+00 0.000000e+00 1.000000e+00
      outer loop
         vertex 7.500000e-01 1.299038e+00 1.500000e+02
         vertex -2.604723e-01 1.477212e+00 1.500000e+02
         vertex 1.409539e+00 5.130302e-01 1.500000e+02
      endloop
   endfacet
   facet normal 0.000000e+00 0.000000e+00 1.000000e+00
      outer loop
         vertex -2.604723e-01 -1.477212e+00 1.500000e+02
         vertex -1.149067e+00 9.641814e-01 1.500000e+02
         vertex -1.149067e+00 -9.641814e-01 1.500000e+02
      endloop
   endfacet
   facet normal 0.000000e+00 0.000000e+00 1.000000e+00
      outer loop
         vertex 1.409539e+00 5.130302e-01 1.500000e+02
         vertex -2.604723e-01 1.477212e+00 1.500000e+02
         vertex -1.149067e+00 9.641814e-01 1.500000e+02
      endloop
   endfacet
   facet normal 0.000000e+00 0.000000e+00 1.000000e+00
      outer loop
         vertex 7.500000e-01 -1.299038e+00 1.500000e+02
         vertex 1.409539e+00 -5.130302e-01 1.500000e+02
         vertex -1.149067e+00 9.641814e-01 1.500000e+02
      endloop
   endfacet
   facet normal 0.000000e+00 0.000000e+00 -1.000000e+00
      outer loop
         vertex -1.149067e+00 9.641814e-01 0.000000e+00
         vertex -1.149067e+00 -9.641814e-01 0.000000e+00
         vertex -1.500000e+00 1.836970e-16 0.000000e+00
      endloop
   endfacet
   facet normal -0.000000e+00 0.000000e+00 -1.000000e+00
      outer loop
         vertex 1.409539e+00 -5.130302e-01 0.000000e+00
         vertex 7.500000e-01 -1.299038e+00 0.000000e+00
         vertex -2.604723e-01 -1.477212e+00 0.000000e+00
      endloop
   endfacet
   facet normal 0.000000e+00 0.000000e+00 -1.000000e+00
      outer loop
         vertex 1.409539e+00 -5.130302e-01 0.000000e+00
         vertex 7.500000e-01 1.299038e+00 0.000000e+00
         vertex 1.409539e+00 5.130302e-01 0.000000e+00
      endloop
   endfacet
   facet normal 0.000000e+00 0.000000e+00 -1.000000e+00
      outer loop
         vertex -2.604723e-01 -1.477212e+00 0.000000e+00
         vertex -1.149067e+00 -9.641814e-01 0.000000e+00
         vertex -1.149067e+00 9.641814e-01 0.000000e+00
      endloop
   endfacet
   facet normal 0.000000e+00 0.000000e+00 -1.000000e+00
      outer loop
         vertex 1.409539e+00 -5.130302e-01 0.000000e+00
         vertex -2.604723e-01 -1.477212e+00 0.000000e+00
         vertex -1.149067e+00 9.641814e-01 0.000000e+00
      endloop
   endfacet
   facet normal 0.000000e+00 0.000000e+00 -1.000000e+00
      outer loop
         vertex 1.409539e+00 -5.130302e-01 0.000000e+00
         vertex -2.604723e-01 1.477212e+00 0.000000e+00
         vertex 7.500000e-01 1.299038e+00 0.000000e+00
      endloop
   endfacet
   facet normal 0.000000e+00 0.000000e+00 -1.000000e+00
      outer loop
         vertex -2.604723e-01 1.477212e+00 0.000000e+00
         vertex 1.409539e+00 -5.130302e-01 0.000000e+00
         vertex -1.149067e+00 9.641814e-01 0.000000e+00
      endloop
   endfacet
endsolid
