solid 
   facet normal 0.000000e+00 1.000000e+00 -0.000000e+00
      outer loop
         vertex 1.050000e+01 1.400000e+01 2.400000e+01
         vertex 1.050000e+01 1.400000e+01 0.000000e+00
         vertex 6.409539e+00 1.400000e+01 1.698697e+01
      endloop
   endfacet
   facet normal 0.000000e+00 1.000000e+00 0.000000e+00
      outer loop
         vertex -1.050000e+01 1.400000e+01 0.000000e+00
         vertex -1.050000e+01 1.400000e+01 2.400000e+01
         vertex 3.850933e+00 1.400000e+01 1.653582e+01
      endloop
   endfacet
   facet normal 0.000000e+00 1.000000e+00 -0.000000e+00
      outer loop
         vertex 3.850933e+00 1.400000e+01 1.846418e+01
         vertex 3.500000e+00 1.400000e+01 1.750000e+01
         vertex -1.050000e+01 1.400000e+01 2.400000e+01
      endloop
   endfacet
   facet normal 0.000000e+00 1.000000e+00 0.000000e+00
      outer loop
         vertex 3.850933e+00 1.400000e+01 1.653582e+01
         vertex 4.739528e+00 1.400000e+01 1.602279e+01
         vertex -1.050000e+01 1.400000e+01 0.000000e+00
      endloop
   endfacet
   facet normal 0.000000e+00 1.000000e+00 0.000000e+00
      outer loop
         vertex 5.750000e+00 1.400000e+01 1.620096e+01
         vertex 6.409539e+00 1.400000e+01 1.698697e+01
         vertex 1.050000e+01 1.400000e+01 0.000000e+00
      endloop
   endfacet
   facet normal -0.000000e+00 1.000000e+00 0.000000e+00
      outer loop
         vertex 6.409539e+00 1.400000e+01 1.801303e+01
         vertex 5.750000e+00 1.400000e+01 1.879904e+01
         vertex 1.050000e+01 1.400000e+01 2.400000e+01
      endloop
   endfacet
   facet normal 0.000000e+00 1.000000e+00 -0.000000e+00
      outer loop
         vertex 4.739528e+00 1.400000e+01 1.897721e+01
         vertex 3.850933e+00 1.400000e+01 1.846418e+01
         vertex -1.050000e+01 1.400000e+01 2.400000e+01
      endloop
   endfacet
   facet normal 0.000000e+00 1.000000e+00 0.000000e+00
      outer loop
         vertex 3.850933e+00 1.400000e+01 1.653582e+01
         vertex -1.050000e+01 1.400000e+01 2.400000e+01
         vertex 3.500000e+00 1.400000e+01 1.750000e+01
      endloop
   endfacet
   facet normal 0.000000e+00 1.000000e+00 0.000000e+00
      outer loop
         vertex 6.409539e+00 1.400000e+01 1.801303e+01
         vertex 1.050000e+01 1.400000e+01 2.400000e+01
         vertex 6.409539e+00 1.400000e+01 1.698697e+01
      endloop
   endfacet
   facet normal 0.000000e+00 1.000000e+00 0.000000e+00
      outer loop
         vertex 1.050000e+01 1.400000e+01 0.000000e+00
         vertex -1.050000e+01 1.400000e+01 0.000000e+00
         vertex 4.739528e+00 1.400000e+01 1.602279e+01
      endloop
   endfacet
   facet normal 0.000000e+00 1.000000e+00 0.000000e+00
      outer loop
         vertex 4.739528e+00 1.400000e+01 1.602279e+01
         vertex 5.750000e+00 1.400000e+01 1.620096e+01
         vertex 1.050000e+01 1.400000e+01 0.000000e+00
      endloop
   endfacet
   facet normal 0.000000e+00 1.000000e+00 -0.000000e+00
      outer loop
         vertex 1.050000e+01 1.400000e+01 2.400000e+01
         vertex 5.750000e+00 1.400000e+01 1.879904e+01
         vertex 4.739528e+00 1.400000e+01 1.897721e+01
      endloop
   endfacet
   facet normal 0.000000e+00 1.000000e+00 0.000000e+00
      outer loop
         vertex -1.050000e+01 1.400000e+01 2.400000e+01
         vertex 1.050000e+01 1.400000e+01 2.400000e+01
         vertex 4.739528e+00 1.400000e+01 1.897721e+01
      endloop
   endfacet
   facet normal 0.000000e+00 -1.000000e+00 0.000000e+00
      outer loop
         vertex 7.500000e+00 -2.400000e+01 2.000000e+01
         vertex 2.500000e+00 -2.400000e+01 2.000000e+01
         vertex 4.739528e+00 -2.400000e+01 1.897721e+01
      endloop
   endfacet
   facet normal 0.000000e+00 -1.000000e+00 0.000000e+00
      outer loop
         vertex 2.500000e+00 -2.400000e+01 1.400000e+01
         vertex 7.500000e+00 -2.400000e+01 1.400000e+01
         vertex 4.739528e+00 -2.400000e+01 1.602279e+01
      endloop
   endfacet
   facet normal 0.000000e+00 -1.000000e+00 -0.000000e+00
      outer loop
         vertex 3.850933e+00 -2.400000e+01 1.653582e+01
         vertex 3.500000e+00 -2.400000e+01 1.750000e+01
         vertex 2.500000e+00 -2.400000e+01 1.400000e+01
      endloop
   endfacet
   facet normal -0.000000e+00 -1.000000e+00 0.000000e+00
      outer loop
         vertex 3.850933e+00 -2.400000e+01 1.846418e+01
         vertex 4.739528e+00 -2.400000e+01 1.897721e+01
         vertex 2.500000e+00 -2.400000e+01 2.000000e+01
      endloop
   endfacet
   facet normal 0.000000e+00 -1.000000e+00 0.000000e+00
      outer loop
         vertex 5.750000e+00 -2.400000e+01 1.879904e+01
         vertex 6.409539e+00 -2.400000e+01 1.801303e+01
         vertex 7.500000e+00 -2.400000e+01 2.000000e+01
      endloop
   endfacet
   facet normal 0.000000e+00 -1.000000e+00 0.000000e+00
      outer loop
         vertex 6.409539e+00 -2.400000e+01 1.698697e+01
         vertex 5.750000e+00 -2.400000e+01 1.620096e+01
         vertex 7.500000e+00 -2.400000e+01 1.400000e+01
      endloop
   endfacet
   facet normal 0.000000e+00 -1.000000e+00 -0.000000e+00
      outer loop
         vertex 4.739528e+00 -2.400000e+01 1.602279e+01
         vertex 3.850933e+00 -2.400000e+01 1.653582e+01
         vertex 2.500000e+00 -2.400000e+01 1.400000e+01
      endloop
   endfacet
   facet normal 0.000000e+00 -1.000000e+00 0.000000e+00
      outer loop
         vertex 4.739528e+00 -2.400000e+01 1.602279e+01
         vertex 7.500000e+00 -2.400000e+01 1.400000e+01
         vertex 5.750000e+00 -2.400000e+01 1.620096e+01
      endloop
   endfacet
   facet normal 0.000000e+00 -1.000000e+00 0.000000e+00
      outer loop
         vertex 5.750000e+00 -2.400000e+01 1.879904e+01
         vertex 7.500000e+00 -2.400000e+01 2.000000e+01
         vertex 4.739528e+00 -2.400000e+01 1.897721e+01
      endloop
   endfacet
   facet normal 0.000000e+00 -1.000000e+00 0.000000e+00
      outer loop
         vertex 2.500000e+00 -2.400000e+01 2.000000e+01
         vertex 2.500000e+00 -2.400000e+01 1.400000e+01
         vertex 3.500000e+00 -2.400000e+01 1.750000e+01
      endloop
   endfacet
   facet normal -0.000000e+00 -1.000000e+00 0.000000e+00
      outer loop
         vertex 3.500000e+00 -2.400000e+01 1.750000e+01
         vertex 3.850933e+00 -2.400000e+01 1.846418e+01
         vertex 2.500000e+00 -2.400000e+01 2.000000e+01
      endloop
   endfacet
   facet normal 0.000000e+00 -1.000000e+00 0.000000e+00
      outer loop
         vertex 7.500000e+00 -2.400000e+01 2.000000e+01
         vertex 6.409539e+00 -2.400000e+01 1.801303e+01
         vertex 6.409539e+00 -2.400000e+01 1.698697e+01
      endloop
   endfacet
   facet normal 0.000000e+00 -1.000000e+00 -0.000000e+00
      outer loop
         vertex 7.500000e+00 -2.400000e+01 1.400000e+01
         vertex 7.500000e+00 -2.400000e+01 2.000000e+01
         vertex 6.409539e+00 -2.400000e+01 1.698697e+01
      endloop
   endfacet
   facet normal -9.396927e-01 -0.000000e+00 -3.420200e-01
      outer loop
         vertex 3.500000e+00 -3.550000e+01 1.750000e+01
         vertex 3.500000e+00 -2.400000e+01 1.750000e+01
         vertex 3.850933e+00 -2.400000e+01 1.653582e+01
      endloop
   endfacet
   facet normal 1.736477e-01 0.000000e+00 -9.848078e-01
      outer loop
         vertex 4.739528e+00 -2.400000e+01 1.602279e+01
         vertex 5.750000e+00 -2.400000e+01 1.620096e+01
         vertex 4.739528e+00 -3.550000e+01 1.602279e+01
      endloop
   endfacet
   facet normal 1.000000e+00 0.000000e+00 0.000000e+00
      outer loop
         vertex 6.409539e+00 -2.400000e+01 1.698697e+01
         vertex 6.409539e+00 -2.400000e+01 1.801303e+01
         vertex 6.409539e+00 -3.550000e+01 1.801303e+01
      endloop
   endfacet
   facet normal 1.736477e-01 0.000000e+00 9.848078e-01
      outer loop
         vertex 5.750000e+00 -2.400000e+01 1.879904e+01
         vertex 4.739528e+00 -2.400000e+01 1.897721e+01
         vertex 4.739528e+00 -3.550000e+01 1.897721e+01
      endloop
   endfacet
   facet normal -9.396927e-01 0.000000e+00 3.420200e-01
      outer loop
         vertex 3.850933e+00 -2.400000e+01 1.846418e+01
         vertex 3.500000e+00 -2.400000e+01 1.750000e+01
         vertex 3.500000e+00 -3.550000e+01 1.750000e+01
      endloop
   endfacet
   facet normal -4.999992e-01 0.000000e+00 8.660259e-01
      outer loop
         vertex 3.850933e+00 -3.550000e+01 1.846418e+01
         vertex 4.739528e+00 -3.550000e+01 1.897721e+01
         vertex 4.739528e+00 -2.400000e+01 1.897721e+01
      endloop
   endfacet
   facet normal 7.660441e-01 0.000000e+00 6.427880e-01
      outer loop
         vertex 5.750000e+00 -3.550000e+01 1.879904e+01
         vertex 6.409539e+00 -3.550000e+01 1.801303e+01
         vertex 5.750000e+00 -2.400000e+01 1.879904e+01
      endloop
   endfacet
   facet normal 7.660441e-01 0.000000e+00 -6.427880e-01
      outer loop
         vertex 6.409539e+00 -3.550000e+01 1.698697e+01
         vertex 5.750000e+00 -3.550000e+01 1.620096e+01
         vertex 5.750000e+00 -2.400000e+01 1.620096e+01
      endloop
   endfacet
   facet normal -4.999992e-01 0.000000e+00 -8.660259e-01
      outer loop
         vertex 4.739528e+00 -3.550000e+01 1.602279e+01
         vertex 3.850933e+00 -3.550000e+01 1.653582e+01
         vertex 3.850933e+00 -2.400000e+01 1.653582e+01
      endloop
   endfacet
   facet normal -9.396927e-01 -0.000000e+00 -3.420200e-01
      outer loop
         vertex 3.500000e+00 -3.550000e+01 1.750000e+01
         vertex 3.850933e+00 -2.400000e+01 1.653582e+01
         vertex 3.850933e+00 -3.550000e+01 1.653582e+01
      endloop
   endfacet
   facet normal 1.000000e+00 0.000000e+00 0.000000e+00
      outer loop
         vertex 6.409539e+00 -2.400000e+01 1.698697e+01
         vertex 6.409539e+00 -3.550000e+01 1.801303e+01
         vertex 6.409539e+00 -3.550000e+01 1.698697e+01
      endloop
   endfacet
   facet normal -9.396927e-01 0.000000e+00 3.420200e-01
      outer loop
         vertex 3.850933e+00 -2.400000e+01 1.846418e+01
         vertex 3.500000e+00 -3.550000e+01 1.750000e+01
         vertex 3.850933e+00 -3.550000e+01 1.846418e+01
      endloop
   endfacet
   facet normal 7.660441e-01 -0.000000e+00 6.427880e-01
      outer loop
         vertex 5.750000e+00 -2.400000e+01 1.879904e+01
         vertex 6.409539e+00 -3.550000e+01 1.801303e+01
         vertex 6.409539e+00 -2.400000e+01 1.801303e+01
      endloop
   endfacet
   facet normal 7.660441e-01 0.000000e+00 -6.427880e-01
      outer loop
         vertex 6.409539e+00 -2.400000e+01 1.698697e+01
         vertex 6.409539e+00 -3.550000e+01 1.698697e+01
         vertex 5.750000e+00 -2.400000e+01 1.620096e+01
      endloop
   endfacet
   facet normal -4.999992e-01 -0.000000e+00 -8.660259e-01
      outer loop
         vertex 3.850933e+00 -2.400000e+01 1.653582e+01
         vertex 4.739528e+00 -2.400000e+01 1.602279e+01
         vertex 4.739528e+00 -3.550000e+01 1.602279e+01
      endloop
   endfacet
   facet normal 1.736477e-01 -0.000000e+00 9.848078e-01
      outer loop
         vertex 4.739528e+00 -3.550000e+01 1.897721e+01
         vertex 5.750000e+00 -3.550000e+01 1.879904e+01
         vertex 5.750000e+00 -2.400000e+01 1.879904e+01
      endloop
   endfacet
   facet normal 1.736477e-01 0.000000e+00 -9.848078e-01
      outer loop
         vertex 4.739528e+00 -3.550000e+01 1.602279e+01
         vertex 5.750000e+00 -2.400000e+01 1.620096e+01
         vertex 5.750000e+00 -3.550000e+01 1.620096e+01
      endloop
   endfacet
   facet normal -4.999992e-01 0.000000e+00 8.660259e-01
      outer loop
         vertex 4.739528e+00 -2.400000e+01 1.897721e+01
         vertex 3.850933e+00 -2.400000e+01 1.846418e+01
         vertex 3.850933e+00 -3.550000e+01 1.846418e+01
      endloop
   endfacet
   facet normal -9.396927e-01 0.000000e+00 3.420200e-01
      outer loop
         vertex 3.500000e+00 2.900000e+01 1.750000e+01
         vertex 3.500000e+00 1.400000e+01 1.750000e+01
         vertex 3.850933e+00 1.400000e+01 1.846418e+01
      endloop
   endfacet
   facet normal 1.736477e-01 -0.000000e+00 9.848078e-01
      outer loop
         vertex 4.739528e+00 1.400000e+01 1.897721e+01
         vertex 5.750000e+00 1.400000e+01 1.879904e+01
         vertex 5.750000e+00 2.900000e+01 1.879904e+01
      endloop
   endfacet
   facet normal 1.000000e+00 0.000000e+00 0.000000e+00
      outer loop
         vertex 6.409539e+00 1.400000e+01 1.801303e+01
         vertex 6.409539e+00 1.400000e+01 1.698697e+01
         vertex 6.409539e+00 2.900000e+01 1.698697e+01
      endloop
   endfacet
   facet normal 1.736477e-01 0.000000e+00 -9.848078e-01
      outer loop
         vertex 5.750000e+00 1.400000e+01 1.620096e+01
         vertex 4.739528e+00 1.400000e+01 1.602279e+01
         vertex 4.739528e+00 2.900000e+01 1.602279e+01
      endloop
   endfacet
   facet normal -9.396927e-01 0.000000e+00 -3.420200e-01
      outer loop
         vertex 3.850933e+00 1.400000e+01 1.653582e+01
         vertex 3.500000e+00 1.400000e+01 1.750000e+01
         vertex 3.500000e+00 2.900000e+01 1.750000e+01
      endloop
   endfacet
   facet normal -4.999992e-01 -0.000000e+00 -8.660259e-01
      outer loop
         vertex 3.850933e+00 2.900000e+01 1.653582e+01
         vertex 4.739528e+00 2.900000e+01 1.602279e+01
         vertex 4.739528e+00 1.400000e+01 1.602279e+01
      endloop
   endfacet
   facet normal 7.660441e-01 0.000000e+00 -6.427880e-01
      outer loop
         vertex 5.750000e+00 2.900000e+01 1.620096e+01
         vertex 6.409539e+00 2.900000e+01 1.698697e+01
         vertex 6.409539e+00 1.400000e+01 1.698697e+01
      endloop
   endfacet
   facet normal 7.660441e-01 0.000000e+00 6.427880e-01
      outer loop
         vertex 6.409539e+00 2.900000e+01 1.801303e+01
         vertex 5.750000e+00 2.900000e+01 1.879904e+01
         vertex 5.750000e+00 1.400000e+01 1.879904e+01
      endloop
   endfacet
   facet normal -4.999992e-01 0.000000e+00 8.660259e-01
      outer loop
         vertex 4.739528e+00 2.900000e+01 1.897721e+01
         vertex 3.850933e+00 2.900000e+01 1.846418e+01
         vertex 3.850933e+00 1.400000e+01 1.846418e+01
      endloop
   endfacet
   facet normal -9.396927e-01 0.000000e+00 3.420200e-01
      outer loop
         vertex 3.500000e+00 2.900000e+01 1.750000e+01
         vertex 3.850933e+00 1.400000e+01 1.846418e+01
         vertex 3.850933e+00 2.900000e+01 1.846418e+01
      endloop
   endfacet
   facet normal 1.736477e-01 0.000000e+00 -9.848078e-01
      outer loop
         vertex 5.750000e+00 1.400000e+01 1.620096e+01
         vertex 4.739528e+00 2.900000e+01 1.602279e+01
         vertex 5.750000e+00 2.900000e+01 1.620096e+01
      endloop
   endfacet
   facet normal 7.660441e-01 0.000000e+00 -6.427880e-01
      outer loop
         vertex 5.750000e+00 2.900000e+01 1.620096e+01
         vertex 6.409539e+00 1.400000e+01 1.698697e+01
         vertex 5.750000e+00 1.400000e+01 1.620096e+01
      endloop
   endfacet
   facet normal -4.999992e-01 0.000000e+00 8.660259e-01
      outer loop
         vertex 3.850933e+00 1.400000e+01 1.846418e+01
         vertex 4.739528e+00 1.400000e+01 1.897721e+01
         vertex 4.739528e+00 2.900000e+01 1.897721e+01
      endloop
   endfacet
   facet normal -4.999992e-01 0.000000e+00 -8.660259e-01
      outer loop
         vertex 4.739528e+00 1.400000e+01 1.602279e+01
         vertex 3.850933e+00 1.400000e+01 1.653582e+01
         vertex 3.850933e+00 2.900000e+01 1.653582e+01
      endloop
   endfacet
   facet normal 1.000000e+00 0.000000e+00 0.000000e+00
      outer loop
         vertex 6.409539e+00 2.900000e+01 1.698697e+01
         vertex 6.409539e+00 2.900000e+01 1.801303e+01
         vertex 6.409539e+00 1.400000e+01 1.801303e+01
      endloop
   endfacet
   facet normal 1.736477e-01 0.000000e+00 9.848078e-01
      outer loop
         vertex 4.739528e+00 1.400000e+01 1.897721e+01
         vertex 5.750000e+00 2.900000e+01 1.879904e+01
         vertex 4.739528e+00 2.900000e+01 1.897721e+01
      endloop
   endfacet
   facet normal -9.396927e-01 0.000000e+00 -3.420200e-01
      outer loop
         vertex 3.850933e+00 2.900000e+01 1.653582e+01
         vertex 3.850933e+00 1.400000e+01 1.653582e+01
         vertex 3.500000e+00 2.900000e+01 1.750000e+01
      endloop
   endfacet
   facet normal 7.660441e-01 -0.000000e+00 6.427880e-01
      outer loop
         vertex 5.750000e+00 1.400000e+01 1.879904e+01
         vertex 6.409539e+00 1.400000e+01 1.801303e+01
         vertex 6.409539e+00 2.900000e+01 1.801303e+01
      endloop
   endfacet
   facet normal 0.000000e+00 0.000000e+00 -1.000000e+00
      outer loop
         vertex 1.350000e+01 -2.300000e+01 0.000000e+00
         vertex 1.050000e+01 -1.400000e+01 0.000000e+00
         vertex 1.350000e+01 -1.400000e+01 0.000000e+00
      endloop
   endfacet
   facet normal 0.000000e+00 0.000000e+00 -1.000000e+00
      outer loop
         vertex 1.050000e+01 -1.400000e+01 0.000000e+00
         vertex -1.050000e+01 1.400000e+01 0.000000e+00
         vertex 1.050000e+01 1.400000e+01 0.000000e+00
      endloop
   endfacet
   facet normal 0.000000e+00 -0.000000e+00 -1.000000e+00
      outer loop
         vertex -1.050000e+01 -2.300000e+01 0.000000e+00
         vertex 1.050000e+01 -1.400000e+01 0.000000e+00
         vertex 1.350000e+01 -2.300000e+01 0.000000e+00
      endloop
   endfacet
   facet normal 0.000000e+00 0.000000e+00 -1.000000e+00
      outer loop
         vertex 1.050000e+01 -1.400000e+01 0.000000e+00
         vertex -1.050000e+01 -2.300000e+01 0.000000e+00
         vertex -1.050000e+01 1.400000e+01 0.000000e+00
      endloop
   endfacet
   facet normal -1.000000e+00 -0.000000e+00 -0.000000e+00
      outer loop
         vertex -1.050000e+01 -2.300000e+01 2.400000e+01
         vertex -1.050000e+01 -2.000000e+01 2.400000e+01
         vertex -1.050000e+01 -2.000000e+01 4.000000e+00
      endloop
   endfacet
   facet normal -1.000000e+00 0.000000e+00 0.000000e+00
      outer loop
         vertex -1.050000e+01 -1.300000e+01 4.000000e+00
         vertex -1.050000e+01 -1.300000e+01 2.400000e+01
         vertex -1.050000e+01 1.400000e+01 2.400000e+01
      endloop
   endfacet
   facet normal -1.000000e+00 0.000000e+00 0.000000e+00
      outer loop
         vertex -1.050000e+01 1.400000e+01 0.000000e+00
         vertex -1.050000e+01 -2.300000e+01 0.000000e+00
         vertex -1.050000e+01 -1.300000e+01 4.000000e+00
      endloop
   endfacet
   facet normal -1.000000e+00 -0.000000e+00 0.000000e+00
      outer loop
         vertex -1.050000e+01 -2.300000e+01 2.400000e+01
         vertex -1.050000e+01 -2.000000e+01 4.000000e+00
         vertex -1.050000e+01 -2.300000e+01 0.000000e+00
      endloop
   endfacet
   facet normal -1.000000e+00 0.000000e+00 0.000000e+00
      outer loop
         vertex -1.050000e+01 -1.300000e+01 4.000000e+00
         vertex -1.050000e+01 -2.300000e+01 0.000000e+00
         vertex -1.050000e+01 -2.000000e+01 4.000000e+00
      endloop
   endfacet
   facet normal -1.000000e+00 0.000000e+00 0.000000e+00
      outer loop
         vertex -1.050000e+01 1.400000e+01 2.400000e+01
         vertex -1.050000e+01 1.400000e+01 0.000000e+00
         vertex -1.050000e+01 -1.300000e+01 4.000000e+00
      endloop
   endfacet
   facet normal 0.000000e+00 0.000000e+00 1.000000e+00
      outer loop
         vertex -1.050000e+01 -1.300000e+01 2.400000e+01
         vertex -5.000000e-01 -1.300000e+01 2.400000e+01
         vertex -1.050000e+01 1.400000e+01 2.400000e+01
      endloop
   endfacet
   facet normal 0.000000e+00 0.000000e+00 1.000000e+00
      outer loop
         vertex -5.000000e-01 -1.400000e+01 2.400000e+01
         vertex 1.050000e+01 -1.400000e+01 2.400000e+01
         vertex -5.000000e-01 -1.300000e+01 2.400000e+01
      endloop
   endfacet
   facet normal 0.000000e+00 -0.000000e+00 1.000000e+00
      outer loop
         vertex -1.050000e+01 1.400000e+01 2.400000e+01
         vertex -5.000000e-01 -1.300000e+01 2.400000e+01
         vertex 1.050000e+01 1.400000e+01 2.400000e+01
      endloop
   endfacet
   facet normal 0.000000e+00 0.000000e+00 1.000000e+00
      outer loop
         vertex 1.050000e+01 -1.400000e+01 2.400000e+01
         vertex 1.050000e+01 1.400000e+01 2.400000e+01
         vertex -5.000000e-01 -1.300000e+01 2.400000e+01
      endloop
   endfacet
   facet normal 1.000000e+00 0.000000e+00 0.000000e+00
      outer loop
         vertex 1.050000e+01 -1.400000e+01 2.400000e+01
         vertex 1.050000e+01 -1.400000e+01 0.000000e+00
         vertex 1.050000e+01 1.400000e+01 0.000000e+00
      endloop
   endfacet
   facet normal 1.000000e+00 -0.000000e+00 0.000000e+00
      outer loop
         vertex 1.050000e+01 1.400000e+01 2.400000e+01
         vertex 1.050000e+01 -1.400000e+01 2.400000e+01
         vertex 1.050000e+01 1.400000e+01 0.000000e+00
      endloop
   endfacet
   facet normal -1.000000e+00 -0.000000e+00 -0.000000e+00
      outer loop
         vertex 2.500000e+00 -2.400000e+01 2.000000e+01
         vertex 2.500000e+00 -2.300000e+01 2.000000e+01
         vertex 2.500000e+00 -2.300000e+01 1.400000e+01
      endloop
   endfacet
   facet normal -1.000000e+00 0.000000e+00 0.000000e+00
      outer loop
         vertex 2.500000e+00 -2.400000e+01 1.400000e+01
         vertex 2.500000e+00 -2.400000e+01 2.000000e+01
         vertex 2.500000e+00 -2.300000e+01 1.400000e+01
      endloop
   endfacet
   facet normal 0.000000e+00 0.000000e+00 -1.000000e+00
      outer loop
         vertex 2.500000e+00 -2.400000e+01 1.400000e+01
         vertex 2.500000e+00 -2.300000e+01 1.400000e+01
         vertex 7.500000e+00 -2.300000e+01 1.400000e+01
      endloop
   endfacet
   facet normal 0.000000e+00 0.000000e+00 -1.000000e+00
      outer loop
         vertex 7.500000e+00 -2.400000e+01 1.400000e+01
         vertex 2.500000e+00 -2.400000e+01 1.400000e+01
         vertex 7.500000e+00 -2.300000e+01 1.400000e+01
      endloop
   endfacet
   facet normal 1.000000e+00 0.000000e+00 -0.000000e+00
      outer loop
         vertex 7.500000e+00 -2.400000e+01 1.400000e+01
         vertex 7.500000e+00 -2.300000e+01 1.400000e+01
         vertex 7.500000e+00 -2.300000e+01 2.000000e+01
      endloop
   endfacet
   facet normal 1.000000e+00 0.000000e+00 0.000000e+00
      outer loop
         vertex 7.500000e+00 -2.400000e+01 2.000000e+01
         vertex 7.500000e+00 -2.400000e+01 1.400000e+01
         vertex 7.500000e+00 -2.300000e+01 2.000000e+01
      endloop
   endfacet
   facet normal 0.000000e+00 0.000000e+00 1.000000e+00
      outer loop
         vertex 7.500000e+00 -2.400000e+01 2.000000e+01
         vertex 7.500000e+00 -2.300000e+01 2.000000e+01
         vertex 2.500000e+00 -2.300000e+01 2.000000e+01
      endloop
   endfacet
   facet normal 0.000000e+00 0.000000e+00 1.000000e+00
      outer loop
         vertex 2.500000e+00 -2.400000e+01 2.000000e+01
         vertex 7.500000e+00 -2.400000e+01 2.000000e+01
         vertex 2.500000e+00 -2.300000e+01 2.000000e+01
      endloop
   endfacet
   facet normal 0.000000e+00 -1.000000e+00 0.000000e+00
      outer loop
         vertex 3.850933e+00 -3.550000e+01 1.846418e+01
         vertex 3.500000e+00 -3.550000e+01 1.750000e+01
         vertex 3.850933e+00 -3.550000e+01 1.653582e+01
      endloop
   endfacet
   facet normal -0.000000e+00 -1.000000e+00 0.000000e+00
      outer loop
         vertex 4.739528e+00 -3.550000e+01 1.602279e+01
         vertex 5.750000e+00 -3.550000e+01 1.620096e+01
         vertex 3.850933e+00 -3.550000e+01 1.846418e+01
      endloop
   endfacet
   facet normal -0.000000e+00 -1.000000e+00 -0.000000e+00
      outer loop
         vertex 6.409539e+00 -3.550000e+01 1.698697e+01
         vertex 6.409539e+00 -3.550000e+01 1.801303e+01
         vertex 3.850933e+00 -3.550000e+01 1.846418e+01
      endloop
   endfacet
   facet normal 0.000000e+00 -1.000000e+00 0.000000e+00
      outer loop
         vertex 5.750000e+00 -3.550000e+01 1.879904e+01
         vertex 4.739528e+00 -3.550000e+01 1.897721e+01
         vertex 6.409539e+00 -3.550000e+01 1.801303e+01
      endloop
   endfacet
   facet normal 0.000000e+00 -1.000000e+00 0.000000e+00
      outer loop
         vertex 4.739528e+00 -3.550000e+01 1.602279e+01
         vertex 3.850933e+00 -3.550000e+01 1.846418e+01
         vertex 3.850933e+00 -3.550000e+01 1.653582e+01
      endloop
   endfacet
   facet normal 0.000000e+00 -1.000000e+00 -0.000000e+00
      outer loop
         vertex 6.409539e+00 -3.550000e+01 1.801303e+01
         vertex 4.739528e+00 -3.550000e+01 1.897721e+01
         vertex 3.850933e+00 -3.550000e+01 1.846418e+01
      endloop
   endfacet
   facet normal -0.000000e+00 -1.000000e+00 0.000000e+00
      outer loop
         vertex 5.750000e+00 -3.550000e+01 1.620096e+01
         vertex 6.409539e+00 -3.550000e+01 1.698697e+01
         vertex 3.850933e+00 -3.550000e+01 1.846418e+01
      endloop
   endfacet
   facet normal 0.000000e+00 1.000000e+00 -0.000000e+00
      outer loop
         vertex 3.850933e+00 2.900000e+01 1.846418e+01
         vertex 3.850933e+00 2.900000e+01 1.653582e+01
         vertex 3.500000e+00 2.900000e+01 1.750000e+01
      endloop
   endfacet
   facet normal 0.000000e+00 1.000000e+00 0.000000e+00
      outer loop
         vertex 3.850933e+00 2.900000e+01 1.653582e+01
         vertex 5.750000e+00 2.900000e+01 1.620096e+01
         vertex 4.739528e+00 2.900000e+01 1.602279e+01
      endloop
   endfacet
   facet normal 0.000000e+00 1.000000e+00 0.000000e+00
      outer loop
         vertex 4.739528e+00 2.900000e+01 1.897721e+01
         vertex 5.750000e+00 2.900000e+01 1.879904e+01
         vertex 6.409539e+00 2.900000e+01 1.801303e+01
      endloop
   endfacet
   facet normal -0.000000e+00 1.000000e+00 0.000000e+00
      outer loop
         vertex 5.750000e+00 2.900000e+01 1.620096e+01
         vertex 3.850933e+00 2.900000e+01 1.653582e+01
         vertex 3.850933e+00 2.900000e+01 1.846418e+01
      endloop
   endfacet
   facet normal 0.000000e+00 1.000000e+00 -0.000000e+00
      outer loop
         vertex 6.409539e+00 2.900000e+01 1.698697e+01
         vertex 5.750000e+00 2.900000e+01 1.620096e+01
         vertex 3.850933e+00 2.900000e+01 1.846418e+01
      endloop
   endfacet
   facet normal 0.000000e+00 1.000000e+00 0.000000e+00
      outer loop
         vertex 4.739528e+00 2.900000e+01 1.897721e+01
         vertex 6.409539e+00 2.900000e+01 1.801303e+01
         vertex 6.409539e+00 2.900000e+01 1.698697e+01
      endloop
   endfacet
   facet normal 0.000000e+00 1.000000e+00 0.000000e+00
      outer loop
         vertex 4.739528e+00 2.900000e+01 1.897721e+01
         vertex 6.409539e+00 2.900000e+01 1.698697e+01
         vertex 3.850933e+00 2.900000e+01 1.846418e+01
      endloop
   endfacet
   facet normal 1.000000e+00 0.000000e+00 0.000000e+00
      outer loop
         vertex 1.350000e+01 -2.300000e+01 2.400000e+01
         vertex 1.350000e+01 -2.300000e+01 0.000000e+00
         vertex 1.350000e+01 -1.400000e+01 0.000000e+00
      endloop
   endfacet
   facet normal 1.000000e+00 -0.000000e+00 0.000000e+00
      outer loop
         vertex 1.350000e+01 -1.400000e+01 2.400000e+01
         vertex 1.350000e+01 -2.300000e+01 2.400000e+01
         vertex 1.350000e+01 -1.400000e+01 0.000000e+00
      endloop
   endfacet
   facet normal 0.000000e+00 -1.000000e+00 0.000000e+00
      outer loop
         vertex -1.050000e+01 -2.300000e+01 2.400000e+01
         vertex -1.050000e+01 -2.300000e+01 0.000000e+00
         vertex 2.500000e+00 -2.300000e+01 1.400000e+01
      endloop
   endfacet
   facet normal 0.000000e+00 -1.000000e+00 -0.000000e+00
      outer loop
         vertex 1.350000e+01 -2.300000e+01 0.000000e+00
         vertex 1.350000e+01 -2.300000e+01 2.400000e+01
         vertex 7.500000e+00 -2.300000e+01 1.400000e+01
      endloop
   endfacet
   facet normal 0.000000e+00 -1.000000e+00 -0.000000e+00
      outer loop
         vertex 1.150000e+01 -2.300000e+01 2.400000e+01
         vertex 1.150000e+01 -2.300000e+01 2.650000e+01
         vertex 7.500000e+00 -2.300000e+01 2.000000e+01
      endloop
   endfacet
   facet normal 0.000000e+00 -1.000000e+00 0.000000e+00
      outer loop
         vertex -5.000000e-01 -2.300000e+01 2.650000e+01
         vertex -5.000000e-01 -2.300000e+01 2.400000e+01
         vertex 7.500000e+00 -2.300000e+01 2.000000e+01
      endloop
   endfacet
   facet normal 0.000000e+00 -1.000000e+00 0.000000e+00
      outer loop
         vertex 7.500000e+00 -2.300000e+01 1.400000e+01
         vertex 2.500000e+00 -2.300000e+01 1.400000e+01
         vertex 1.350000e+01 -2.300000e+01 0.000000e+00
      endloop
   endfacet
   facet normal 0.000000e+00 -1.000000e+00 0.000000e+00
      outer loop
         vertex 2.500000e+00 -2.300000e+01 2.000000e+01
         vertex 7.500000e+00 -2.300000e+01 2.000000e+01
         vertex -5.000000e-01 -2.300000e+01 2.400000e+01
      endloop
   endfacet
   facet normal 0.000000e+00 -1.000000e+00 0.000000e+00
      outer loop
         vertex -1.050000e+01 -2.300000e+01 2.400000e+01
         vertex 2.500000e+00 -2.300000e+01 1.400000e+01
         vertex 2.500000e+00 -2.300000e+01 2.000000e+01
      endloop
   endfacet
   facet normal 0.000000e+00 -1.000000e+00 0.000000e+00
      outer loop
         vertex 1.150000e+01 -2.300000e+01 2.400000e+01
         vertex 7.500000e+00 -2.300000e+01 2.000000e+01
         vertex 1.350000e+01 -2.300000e+01 2.400000e+01
      endloop
   endfacet
   facet normal 0.000000e+00 -1.000000e+00 -0.000000e+00
      outer loop
         vertex 1.350000e+01 -2.300000e+01 0.000000e+00
         vertex 2.500000e+00 -2.300000e+01 1.400000e+01
         vertex -1.050000e+01 -2.300000e+01 0.000000e+00
      endloop
   endfacet
   facet normal 0.000000e+00 -1.000000e+00 0.000000e+00
      outer loop
         vertex 1.150000e+01 -2.300000e+01 2.650000e+01
         vertex -5.000000e-01 -2.300000e+01 2.650000e+01
         vertex 7.500000e+00 -2.300000e+01 2.000000e+01
      endloop
   endfacet
   facet normal 0.000000e+00 -1.000000e+00 0.000000e+00
      outer loop
         vertex 7.500000e+00 -2.300000e+01 2.000000e+01
         vertex 7.500000e+00 -2.300000e+01 1.400000e+01
         vertex 1.350000e+01 -2.300000e+01 2.400000e+01
      endloop
   endfacet
   facet normal 0.000000e+00 -1.000000e+00 0.000000e+00
      outer loop
         vertex -1.050000e+01 -2.300000e+01 2.400000e+01
         vertex 2.500000e+00 -2.300000e+01 2.000000e+01
         vertex -5.000000e-01 -2.300000e+01 2.400000e+01
      endloop
   endfacet
   facet normal 0.000000e+00 1.000000e+00 0.000000e+00
      outer loop
         vertex 1.050000e+01 -1.400000e+01 2.400000e+01
         vertex -5.000000e-01 -1.400000e+01 2.400000e+01
         vertex -5.000000e-01 -1.400000e+01 2.600000e+01
      endloop
   endfacet
   facet normal 0.000000e+00 1.000000e+00 0.000000e+00
      outer loop
         vertex -5.000000e-01 -1.400000e+01 2.650000e+01
         vertex 1.150000e+01 -1.400000e+01 2.650000e+01
         vertex 1.050000e+01 -1.400000e+01 2.400000e+01
      endloop
   endfacet
   facet normal 0.000000e+00 1.000000e+00 0.000000e+00
      outer loop
         vertex 1.150000e+01 -1.400000e+01 2.400000e+01
         vertex 1.350000e+01 -1.400000e+01 2.400000e+01
         vertex 1.350000e+01 -1.400000e+01 0.000000e+00
      endloop
   endfacet
   facet normal -0.000000e+00 1.000000e+00 0.000000e+00
      outer loop
         vertex 1.050000e+01 -1.400000e+01 0.000000e+00
         vertex 1.050000e+01 -1.400000e+01 2.400000e+01
         vertex 1.150000e+01 -1.400000e+01 2.400000e+01
      endloop
   endfacet
   facet normal 0.000000e+00 1.000000e+00 0.000000e+00
      outer loop
         vertex -5.000000e-01 -1.400000e+01 2.650000e+01
         vertex 1.050000e+01 -1.400000e+01 2.400000e+01
         vertex -5.000000e-01 -1.400000e+01 2.600000e+01
      endloop
   endfacet
   facet normal 0.000000e+00 1.000000e+00 0.000000e+00
      outer loop
         vertex 1.150000e+01 -1.400000e+01 2.400000e+01
         vertex 1.050000e+01 -1.400000e+01 2.400000e+01
         vertex 1.150000e+01 -1.400000e+01 2.650000e+01
      endloop
   endfacet
   facet normal 0.000000e+00 1.000000e+00 0.000000e+00
      outer loop
         vertex 1.350000e+01 -1.400000e+01 0.000000e+00
         vertex 1.050000e+01 -1.400000e+01 0.000000e+00
         vertex 1.150000e+01 -1.400000e+01 2.400000e+01
      endloop
   endfacet
   facet normal 0.000000e+00 -1.000000e+00 -0.000000e+00
      outer loop
         vertex -1.050000e+01 -2.000000e+01 4.000000e+00
         vertex -1.050000e+01 -2.000000e+01 2.400000e+01
         vertex -1.350000e+01 -2.000000e+01 4.000000e+00
      endloop
   endfacet
   facet normal 0.000000e+00 -1.000000e+00 -0.000000e+00
      outer loop
         vertex -5.000000e-01 -2.000000e+01 2.400000e+01
         vertex -5.000000e-01 -2.000000e+01 2.600000e+01
         vertex -1.050000e+01 -2.000000e+01 2.400000e+01
      endloop
   endfacet
   facet normal -0.000000e+00 -1.000000e+00 0.000000e+00
      outer loop
         vertex -1.350000e+01 -2.000000e+01 4.000000e+00
         vertex -1.050000e+01 -2.000000e+01 2.400000e+01
         vertex -1.350000e+01 -2.000000e+01 2.600000e+01
      endloop
   endfacet
   facet normal 0.000000e+00 -1.000000e+00 0.000000e+00
      outer loop
         vertex -5.000000e-01 -2.000000e+01 2.600000e+01
         vertex -1.350000e+01 -2.000000e+01 2.600000e+01
         vertex -1.050000e+01 -2.000000e+01 2.400000e+01
      endloop
   endfacet
   facet normal 0.000000e+00 0.000000e+00 -1.000000e+00
      outer loop
         vertex -1.050000e+01 -2.000000e+01 4.000000e+00
         vertex -1.350000e+01 -1.300000e+01 4.000000e+00
         vertex -1.050000e+01 -1.300000e+01 4.000000e+00
      endloop
   endfacet
   facet normal 0.000000e+00 0.000000e+00 -1.000000e+00
      outer loop
         vertex -1.350000e+01 -1.300000e+01 4.000000e+00
         vertex -1.050000e+01 -2.000000e+01 4.000000e+00
         vertex -1.350000e+01 -2.000000e+01 4.000000e+00
      endloop
   endfacet
   facet normal 0.000000e+00 1.000000e+00 -0.000000e+00
      outer loop
         vertex -5.000000e-01 -1.300000e+01 2.600000e+01
         vertex -5.000000e-01 -1.300000e+01 2.400000e+01
         vertex -1.050000e+01 -1.300000e+01 2.400000e+01
      endloop
   endfacet
   facet normal 0.000000e+00 1.000000e+00 0.000000e+00
      outer loop
         vertex -1.050000e+01 -1.300000e+01 4.000000e+00
         vertex -1.350000e+01 -1.300000e+01 4.000000e+00
         vertex -1.050000e+01 -1.300000e+01 2.400000e+01
      endloop
   endfacet
   facet normal 0.000000e+00 1.000000e+00 -0.000000e+00
      outer loop
         vertex -5.000000e-01 -1.300000e+01 2.600000e+01
         vertex -1.050000e+01 -1.300000e+01 2.400000e+01
         vertex -1.350000e+01 -1.300000e+01 2.600000e+01
      endloop
   endfacet
   facet normal 0.000000e+00 1.000000e+00 0.000000e+00
      outer loop
         vertex -1.350000e+01 -1.300000e+01 4.000000e+00
         vertex -1.350000e+01 -1.300000e+01 2.600000e+01
         vertex -1.050000e+01 -1.300000e+01 2.400000e+01
      endloop
   endfacet
   facet normal 0.000000e+00 0.000000e+00 1.000000e+00
      outer loop
         vertex -5.000000e-01 -2.300000e+01 2.400000e+01
         vertex -5.000000e-01 -2.000000e+01 2.400000e+01
         vertex -1.050000e+01 -2.000000e+01 2.400000e+01
      endloop
   endfacet
   facet normal 0.000000e+00 0.000000e+00 1.000000e+00
      outer loop
         vertex -1.050000e+01 -2.300000e+01 2.400000e+01
         vertex -5.000000e-01 -2.300000e+01 2.400000e+01
         vertex -1.050000e+01 -2.000000e+01 2.400000e+01
      endloop
   endfacet
   facet normal 1.000000e+00 -0.000000e+00 0.000000e+00
      outer loop
         vertex -5.000000e-01 -1.300000e+01 2.600000e+01
         vertex -5.000000e-01 -1.400000e+01 2.600000e+01
         vertex -5.000000e-01 -1.400000e+01 2.400000e+01
      endloop
   endfacet
   facet normal 1.000000e+00 0.000000e+00 0.000000e+00
      outer loop
         vertex -5.000000e-01 -1.300000e+01 2.400000e+01
         vertex -5.000000e-01 -1.300000e+01 2.600000e+01
         vertex -5.000000e-01 -1.400000e+01 2.400000e+01
      endloop
   endfacet
   facet normal -0.000000e+00 0.000000e+00 1.000000e+00
      outer loop
         vertex 1.350000e+01 -1.400000e+01 2.400000e+01
         vertex 1.150000e+01 -1.400000e+01 2.400000e+01
         vertex 1.150000e+01 -2.300000e+01 2.400000e+01
      endloop
   endfacet
   facet normal 0.000000e+00 0.000000e+00 1.000000e+00
      outer loop
         vertex 1.350000e+01 -2.300000e+01 2.400000e+01
         vertex 1.350000e+01 -1.400000e+01 2.400000e+01
         vertex 1.150000e+01 -2.300000e+01 2.400000e+01
      endloop
   endfacet
   facet normal 1.000000e+00 0.000000e+00 0.000000e+00
      outer loop
         vertex 1.150000e+01 -2.300000e+01 2.650000e+01
         vertex 1.150000e+01 -2.300000e+01 2.400000e+01
         vertex 1.150000e+01 -1.400000e+01 2.400000e+01
      endloop
   endfacet
   facet normal 1.000000e+00 -0.000000e+00 0.000000e+00
      outer loop
         vertex 1.150000e+01 -1.400000e+01 2.650000e+01
         vertex 1.150000e+01 -2.300000e+01 2.650000e+01
         vertex 1.150000e+01 -1.400000e+01 2.400000e+01
      endloop
   endfacet
   facet normal 0.000000e+00 0.000000e+00 1.000000e+00
      outer loop
         vertex -5.000000e-01 -1.400000e+01 2.650000e+01
         vertex -5.000000e-01 -2.300000e+01 2.650000e+01
         vertex 1.150000e+01 -2.300000e+01 2.650000e+01
      endloop
   endfacet
   facet normal -0.000000e+00 0.000000e+00 1.000000e+00
      outer loop
         vertex 1.150000e+01 -1.400000e+01 2.650000e+01
         vertex -5.000000e-01 -1.400000e+01 2.650000e+01
         vertex 1.150000e+01 -2.300000e+01 2.650000e+01
      endloop
   endfacet
   facet normal -1.000000e+00 0.000000e+00 0.000000e+00
      outer loop
         vertex -5.000000e-01 -1.400000e+01 2.600000e+01
         vertex -5.000000e-01 -2.000000e+01 2.600000e+01
         vertex -5.000000e-01 -1.400000e+01 2.650000e+01
      endloop
   endfacet
   facet normal -1.000000e+00 0.000000e+00 0.000000e+00
      outer loop
         vertex -5.000000e-01 -2.000000e+01 2.400000e+01
         vertex -5.000000e-01 -2.300000e+01 2.400000e+01
         vertex -5.000000e-01 -2.000000e+01 2.600000e+01
      endloop
   endfacet
   facet normal -1.000000e+00 0.000000e+00 0.000000e+00
      outer loop
         vertex -5.000000e-01 -1.400000e+01 2.650000e+01
         vertex -5.000000e-01 -2.000000e+01 2.600000e+01
         vertex -5.000000e-01 -2.300000e+01 2.650000e+01
      endloop
   endfacet
   facet normal -1.000000e+00 0.000000e+00 0.000000e+00
      outer loop
         vertex -5.000000e-01 -2.300000e+01 2.400000e+01
         vertex -5.000000e-01 -2.300000e+01 2.650000e+01
         vertex -5.000000e-01 -2.000000e+01 2.600000e+01
      endloop
   endfacet
   facet normal 0.000000e+00 -0.000000e+00 1.000000e+00
      outer loop
         vertex -1.350000e+01 -2.000000e+01 2.600000e+01
         vertex -5.000000e-01 -2.000000e+01 2.600000e+01
         vertex -5.000000e-01 -1.400000e+01 2.600000e+01
      endloop
   endfacet
   facet normal -0.000000e+00 0.000000e+00 1.000000e+00
      outer loop
         vertex -5.000000e-01 -1.300000e+01 2.600000e+01
         vertex -1.350000e+01 -1.300000e+01 2.600000e+01
         vertex -5.000000e-01 -1.400000e+01 2.600000e+01
      endloop
   endfacet
   facet normal 0.000000e+00 0.000000e+00 1.000000e+00
      outer loop
         vertex -5.000000e-01 -1.400000e+01 2.600000e+01
         vertex -1.350000e+01 -1.300000e+01 2.600000e+01
         vertex -1.350000e+01 -2.000000e+01 2.600000e+01
      endloop
   endfacet
   facet normal -1.000000e+00 0.000000e+00 0.000000e+00
      outer loop
         vertex -1.350000e+01 -1.300000e+01 2.600000e+01
         vertex -1.350000e+01 -1.300000e+01 4.000000e+00
         vertex -1.350000e+01 -2.000000e+01 4.000000e+00
      endloop
   endfacet
   facet normal -1.000000e+00 -0.000000e+00 0.000000e+00
      outer loop
         vertex -1.350000e+01 -2.000000e+01 2.600000e+01
         vertex -1.350000e+01 -1.300000e+01 2.600000e+01
         vertex -1.350000e+01 -2.000000e+01 4.000000e+00
      endloop
   endfacet
endsolid
