solid 
   facet normal 0.000000e+00 1.000000e+00 0.000000e+00
      outer loop
         vertex 2.126500e+01 3.465917e+01 1.100000e+01
         vertex 2.155390e+01 3.465917e+01 1.100000e+01
         vertex 2.152547e+01 3.465917e+01 3.977212e+00
      endloop
   endfacet
   facet normal 0.000000e+00 1.000000e+00 0.000000e+00
      outer loop
         vertex 2.436954e+01 3.465917e+01 1.052011e+01
         vertex 2.686725e+01 3.465917e+01 9.134630e+00
         vertex 2.241407e+01 3.465917e+01 3.464181e+00
      endloop
   endfacet
   facet normal 0.000000e+00 1.000000e+00 0.000000e+00
      outer loop
         vertex 2.876500e+01 3.465917e+01 7.000000e+00
         vertex 3.976500e+01 3.465917e+01 7.000000e+00
         vertex 2.241407e+01 3.465917e+01 1.535819e+00
      endloop
   endfacet
   facet normal 0.000000e+00 1.000000e+00 0.000000e+00
      outer loop
         vertex 3.976500e+01 3.465917e+01 -2.000000e+01
         vertex 6.764999e+00 3.465917e+01 -2.000000e+01
         vertex 2.152547e+01 3.465917e+01 1.022788e+00
      endloop
   endfacet
   facet normal 0.000000e+00 1.000000e+00 0.000000e+00
      outer loop
         vertex 6.764999e+00 3.465917e+01 -2.000000e+00
         vertex 1.276500e+01 3.465917e+01 -2.000000e+00
         vertex 6.764999e+00 3.465917e+01 -2.000000e+01
      endloop
   endfacet
   facet normal 0.000000e+00 1.000000e+00 0.000000e+00
      outer loop
         vertex 1.318102e+01 3.465917e+01 5.126645e+00
         vertex 1.438835e+01 3.465917e+01 7.496175e+00
         vertex 1.985546e+01 3.465917e+01 3.013030e+00
      endloop
   endfacet
   facet normal 0.000000e+00 1.000000e+00 0.000000e+00
      outer loop
         vertex 1.626882e+01 3.465917e+01 9.376644e+00
         vertex 1.863836e+01 3.465917e+01 1.058398e+01
         vertex 2.051500e+01 3.465917e+01 3.799038e+00
      endloop
   endfacet
   facet normal -0.000000e+00 1.000000e+00 0.000000e+00
      outer loop
         vertex 2.241407e+01 3.465917e+01 1.535819e+00
         vertex 2.276500e+01 3.465917e+01 2.500000e+00
         vertex 2.876500e+01 3.465917e+01 7.000000e+00
      endloop
   endfacet
   facet normal -0.000000e+00 1.000000e+00 0.000000e+00
      outer loop
         vertex 2.241407e+01 3.465917e+01 3.464181e+00
         vertex 2.152547e+01 3.465917e+01 3.977212e+00
         vertex 2.436954e+01 3.465917e+01 1.052011e+01
      endloop
   endfacet
   facet normal 0.000000e+00 1.000000e+00 -0.000000e+00
      outer loop
         vertex 2.051500e+01 3.465917e+01 3.799038e+00
         vertex 1.985546e+01 3.465917e+01 3.013030e+00
         vertex 1.438835e+01 3.465917e+01 7.496175e+00
      endloop
   endfacet
   facet normal 0.000000e+00 1.000000e+00 0.000000e+00
      outer loop
         vertex 1.985546e+01 3.465917e+01 1.986970e+00
         vertex 2.051500e+01 3.465917e+01 1.200962e+00
         vertex 1.276500e+01 3.465917e+01 -2.000000e+00
      endloop
   endfacet
   facet normal 0.000000e+00 1.000000e+00 0.000000e+00
      outer loop
         vertex 2.152547e+01 3.465917e+01 1.022788e+00
         vertex 2.241407e+01 3.465917e+01 1.535819e+00
         vertex 3.976500e+01 3.465917e+01 -2.000000e+01
      endloop
   endfacet
   facet normal 0.000000e+00 1.000000e+00 0.000000e+00
      outer loop
         vertex 2.152547e+01 3.465917e+01 3.977212e+00
         vertex 2.155390e+01 3.465917e+01 1.100000e+01
         vertex 2.436954e+01 3.465917e+01 1.052011e+01
      endloop
   endfacet
   facet normal 0.000000e+00 1.000000e+00 0.000000e+00
      outer loop
         vertex 2.152547e+01 3.465917e+01 1.022788e+00
         vertex 6.764999e+00 3.465917e+01 -2.000000e+01
         vertex 1.276500e+01 3.465917e+01 -2.000000e+00
      endloop
   endfacet
   facet normal 0.000000e+00 1.000000e+00 0.000000e+00
      outer loop
         vertex 1.626882e+01 3.465917e+01 9.376644e+00
         vertex 2.051500e+01 3.465917e+01 3.799038e+00
         vertex 1.438835e+01 3.465917e+01 7.496175e+00
      endloop
   endfacet
   facet normal 0.000000e+00 1.000000e+00 0.000000e+00
      outer loop
         vertex 1.985546e+01 3.465917e+01 1.986970e+00
         vertex 1.276500e+01 3.465917e+01 -2.000000e+00
         vertex 1.276500e+01 3.465917e+01 2.500000e+00
      endloop
   endfacet
   facet normal 0.000000e+00 1.000000e+00 0.000000e+00
      outer loop
         vertex 2.152547e+01 3.465917e+01 1.022788e+00
         vertex 1.276500e+01 3.465917e+01 -2.000000e+00
         vertex 2.051500e+01 3.465917e+01 1.200962e+00
      endloop
   endfacet
   facet normal 0.000000e+00 1.000000e+00 0.000000e+00
      outer loop
         vertex 2.686725e+01 3.465917e+01 9.134630e+00
         vertex 2.876500e+01 3.465917e+01 7.000000e+00
         vertex 2.241407e+01 3.465917e+01 3.464181e+00
      endloop
   endfacet
   facet normal 0.000000e+00 1.000000e+00 0.000000e+00
      outer loop
         vertex 1.276500e+01 3.465917e+01 2.500000e+00
         vertex 1.318102e+01 3.465917e+01 5.126645e+00
         vertex 1.985546e+01 3.465917e+01 3.013030e+00
      endloop
   endfacet
   facet normal -0.000000e+00 1.000000e+00 0.000000e+00
      outer loop
         vertex 2.276500e+01 3.465917e+01 2.500000e+00
         vertex 2.241407e+01 3.465917e+01 3.464181e+00
         vertex 2.876500e+01 3.465917e+01 7.000000e+00
      endloop
   endfacet
   facet normal 0.000000e+00 1.000000e+00 -0.000000e+00
      outer loop
         vertex 1.985546e+01 3.465917e+01 3.013030e+00
         vertex 1.985546e+01 3.465917e+01 1.986970e+00
         vertex 1.276500e+01 3.465917e+01 2.500000e+00
      endloop
   endfacet
   facet normal 0.000000e+00 1.000000e+00 0.000000e+00
      outer loop
         vertex 2.241407e+01 3.465917e+01 1.535819e+00
         vertex 3.976500e+01 3.465917e+01 7.000000e+00
         vertex 3.976500e+01 3.465917e+01 -2.000000e+01
      endloop
   endfacet
   facet normal 0.000000e+00 1.000000e+00 0.000000e+00
      outer loop
         vertex 1.863836e+01 3.465917e+01 1.058398e+01
         vertex 2.126500e+01 3.465917e+01 1.100000e+01
         vertex 2.152547e+01 3.465917e+01 3.977212e+00
      endloop
   endfacet
   facet normal 0.000000e+00 1.000000e+00 0.000000e+00
      outer loop
         vertex 2.051500e+01 3.465917e+01 3.799038e+00
         vertex 1.863836e+01 3.465917e+01 1.058398e+01
         vertex 2.152547e+01 3.465917e+01 3.977212e+00
      endloop
   endfacet
   facet normal 0.000000e+00 -1.000000e+00 0.000000e+00
      outer loop
         vertex 1.276500e+01 -5.340834e+00 0.000000e+00
         vertex 1.276500e+01 -5.340834e+00 -2.000000e+00
         vertex 1.676500e+01 -5.340834e+00 0.000000e+00
      endloop
   endfacet
   facet normal 0.000000e+00 -1.000000e+00 0.000000e+00
      outer loop
         vertex 6.764999e+00 -5.340834e+00 -2.000000e+00
         vertex 6.764999e+00 -5.340834e+00 -2.000000e+01
         vertex 1.276500e+01 -5.340834e+00 -2.000000e+00
      endloop
   endfacet
   facet normal 0.000000e+00 -1.000000e+00 0.000000e+00
      outer loop
         vertex 3.976500e+01 -5.340834e+00 0.000000e+00
         vertex 2.476500e+01 -5.340834e+00 0.000000e+00
         vertex 3.976500e+01 -5.340834e+00 -2.000000e+01
      endloop
   endfacet
   facet normal 0.000000e+00 -1.000000e+00 0.000000e+00
      outer loop
         vertex 1.676500e+01 -5.340834e+00 5.000000e+00
         vertex 1.676500e+01 -5.340834e+00 0.000000e+00
         vertex 1.985546e+01 -5.340834e+00 1.986970e+00
      endloop
   endfacet
   facet normal 0.000000e+00 -1.000000e+00 0.000000e+00
      outer loop
         vertex 2.276500e+01 -5.340834e+00 2.500000e+00
         vertex 2.241407e+01 -5.340834e+00 1.535819e+00
         vertex 2.476500e+01 -5.340834e+00 0.000000e+00
      endloop
   endfacet
   facet normal 0.000000e+00 -1.000000e+00 -0.000000e+00
      outer loop
         vertex 2.152547e+01 -5.340834e+00 1.022788e+00
         vertex 2.051500e+01 -5.340834e+00 1.200962e+00
         vertex 1.676500e+01 -5.340834e+00 0.000000e+00
      endloop
   endfacet
   facet normal -0.000000e+00 -1.000000e+00 -0.000000e+00
      outer loop
         vertex 1.985546e+01 -5.340834e+00 1.986970e+00
         vertex 1.985546e+01 -5.340834e+00 3.013030e+00
         vertex 1.676500e+01 -5.340834e+00 5.000000e+00
      endloop
   endfacet
   facet normal -0.000000e+00 -1.000000e+00 0.000000e+00
      outer loop
         vertex 2.051500e+01 -5.340834e+00 3.799038e+00
         vertex 2.152547e+01 -5.340834e+00 3.977212e+00
         vertex 1.676500e+01 -5.340834e+00 5.000000e+00
      endloop
   endfacet
   facet normal 0.000000e+00 -1.000000e+00 0.000000e+00
      outer loop
         vertex 1.676500e+01 -5.340834e+00 0.000000e+00
         vertex 1.276500e+01 -5.340834e+00 -2.000000e+00
         vertex 2.476500e+01 -5.340834e+00 0.000000e+00
      endloop
   endfacet
   facet normal 0.000000e+00 -1.000000e+00 -0.000000e+00
      outer loop
         vertex 3.976500e+01 -5.340834e+00 -2.000000e+01
         vertex 2.476500e+01 -5.340834e+00 0.000000e+00
         vertex 6.764999e+00 -5.340834e+00 -2.000000e+01
      endloop
   endfacet
   facet normal 0.000000e+00 -1.000000e+00 -0.000000e+00
      outer loop
         vertex 2.476500e+01 -5.340834e+00 0.000000e+00
         vertex 2.241407e+01 -5.340834e+00 1.535819e+00
         vertex 2.152547e+01 -5.340834e+00 1.022788e+00
      endloop
   endfacet
   facet normal 0.000000e+00 -1.000000e+00 0.000000e+00
      outer loop
         vertex 1.676500e+01 -5.340834e+00 5.000000e+00
         vertex 1.985546e+01 -5.340834e+00 3.013030e+00
         vertex 2.051500e+01 -5.340834e+00 3.799038e+00
      endloop
   endfacet
   facet normal 0.000000e+00 -1.000000e+00 -0.000000e+00
      outer loop
         vertex 2.476500e+01 -5.340834e+00 0.000000e+00
         vertex 1.276500e+01 -5.340834e+00 -2.000000e+00
         vertex 6.764999e+00 -5.340834e+00 -2.000000e+01
      endloop
   endfacet
   facet normal 0.000000e+00 -1.000000e+00 -0.000000e+00
      outer loop
         vertex 2.476500e+01 -5.340834e+00 0.000000e+00
         vertex 2.476500e+01 -5.340834e+00 5.000000e+00
         vertex 2.276500e+01 -5.340834e+00 2.500000e+00
      endloop
   endfacet
   facet normal 0.000000e+00 -1.000000e+00 0.000000e+00
      outer loop
         vertex 2.241407e+01 -5.340834e+00 3.464181e+00
         vertex 2.276500e+01 -5.340834e+00 2.500000e+00
         vertex 2.476500e+01 -5.340834e+00 5.000000e+00
      endloop
   endfacet
   facet normal 0.000000e+00 -1.000000e+00 0.000000e+00
      outer loop
         vertex 2.152547e+01 -5.340834e+00 3.977212e+00
         vertex 2.241407e+01 -5.340834e+00 3.464181e+00
         vertex 2.476500e+01 -5.340834e+00 5.000000e+00
      endloop
   endfacet
   facet normal 0.000000e+00 -1.000000e+00 0.000000e+00
      outer loop
         vertex 2.152547e+01 -5.340834e+00 1.022788e+00
         vertex 1.676500e+01 -5.340834e+00 0.000000e+00
         vertex 2.476500e+01 -5.340834e+00 0.000000e+00
      endloop
   endfacet
   facet normal 0.000000e+00 -1.000000e+00 0.000000e+00
      outer loop
         vertex 1.676500e+01 -5.340834e+00 5.000000e+00
         vertex 2.152547e+01 -5.340834e+00 3.977212e+00
         vertex 2.476500e+01 -5.340834e+00 5.000000e+00
      endloop
   endfacet
   facet normal 0.000000e+00 -1.000000e+00 -0.000000e+00
      outer loop
         vertex 2.051500e+01 -5.340834e+00 1.200962e+00
         vertex 1.985546e+01 -5.340834e+00 1.986970e+00
         vertex 1.676500e+01 -5.340834e+00 0.000000e+00
      endloop
   endfacet
   facet normal 9.396927e-01 0.000000e+00 3.420199e-01
      outer loop
         vertex 2.276500e+01 -1.834083e+01 2.500000e+00
         vertex 2.276500e+01 -5.340834e+00 2.500000e+00
         vertex 2.241407e+01 -5.340834e+00 3.464181e+00
      endloop
   endfacet
   facet normal -1.736483e-01 0.000000e+00 9.848077e-01
      outer loop
         vertex 2.152547e+01 -5.340834e+00 3.977212e+00
         vertex 2.051500e+01 -5.340834e+00 3.799038e+00
         vertex 2.152547e+01 -1.834083e+01 3.977212e+00
      endloop
   endfacet
   facet normal -1.000000e+00 0.000000e+00 0.000000e+00
      outer loop
         vertex 1.985546e+01 -5.340834e+00 3.013030e+00
         vertex 1.985546e+01 -5.340834e+00 1.986970e+00
         vertex 1.985546e+01 -1.834083e+01 1.986970e+00
      endloop
   endfacet
   facet normal -1.736483e-01 -0.000000e+00 -9.848077e-01
      outer loop
         vertex 2.051500e+01 -5.340834e+00 1.200962e+00
         vertex 2.152547e+01 -5.340834e+00 1.022788e+00
         vertex 2.152547e+01 -1.834083e+01 1.022788e+00
      endloop
   endfacet
   facet normal 9.396927e-01 0.000000e+00 -3.420199e-01
      outer loop
         vertex 2.241407e+01 -5.340834e+00 1.535819e+00
         vertex 2.276500e+01 -5.340834e+00 2.500000e+00
         vertex 2.276500e+01 -1.834083e+01 2.500000e+00
      endloop
   endfacet
   facet normal 4.999995e-01 0.000000e+00 -8.660257e-01
      outer loop
         vertex 2.241407e+01 -1.834083e+01 1.535819e+00
         vertex 2.152547e+01 -1.834083e+01 1.022788e+00
         vertex 2.152547e+01 -5.340834e+00 1.022788e+00
      endloop
   endfacet
   facet normal -7.660448e-01 0.000000e+00 -6.427872e-01
      outer loop
         vertex 2.051500e+01 -1.834083e+01 1.200962e+00
         vertex 1.985546e+01 -1.834083e+01 1.986970e+00
         vertex 2.051500e+01 -5.340834e+00 1.200962e+00
      endloop
   endfacet
   facet normal -7.660448e-01 0.000000e+00 6.427872e-01
      outer loop
         vertex 1.985546e+01 -1.834083e+01 3.013030e+00
         vertex 2.051500e+01 -1.834083e+01 3.799038e+00
         vertex 2.051500e+01 -5.340834e+00 3.799038e+00
      endloop
   endfacet
   facet normal 4.999996e-01 -0.000000e+00 8.660257e-01
      outer loop
         vertex 2.152547e+01 -1.834083e+01 3.977212e+00
         vertex 2.241407e+01 -1.834083e+01 3.464181e+00
         vertex 2.241407e+01 -5.340834e+00 3.464181e+00
      endloop
   endfacet
   facet normal 9.396927e-01 0.000000e+00 3.420199e-01
      outer loop
         vertex 2.276500e+01 -1.834083e+01 2.500000e+00
         vertex 2.241407e+01 -5.340834e+00 3.464181e+00
         vertex 2.241407e+01 -1.834083e+01 3.464181e+00
      endloop
   endfacet
   facet normal -1.000000e+00 0.000000e+00 0.000000e+00
      outer loop
         vertex 1.985546e+01 -5.340834e+00 3.013030e+00
         vertex 1.985546e+01 -1.834083e+01 1.986970e+00
         vertex 1.985546e+01 -1.834083e+01 3.013030e+00
      endloop
   endfacet
   facet normal 9.396927e-01 0.000000e+00 -3.420199e-01
      outer loop
         vertex 2.241407e+01 -5.340834e+00 1.535819e+00
         vertex 2.276500e+01 -1.834083e+01 2.500000e+00
         vertex 2.241407e+01 -1.834083e+01 1.535819e+00
      endloop
   endfacet
   facet normal -7.660448e-01 0.000000e+00 -6.427872e-01
      outer loop
         vertex 2.051500e+01 -5.340834e+00 1.200962e+00
         vertex 1.985546e+01 -1.834083e+01 1.986970e+00
         vertex 1.985546e+01 -5.340834e+00 1.986970e+00
      endloop
   endfacet
   facet normal -7.660448e-01 0.000000e+00 6.427872e-01
      outer loop
         vertex 1.985546e+01 -5.340834e+00 3.013030e+00
         vertex 1.985546e+01 -1.834083e+01 3.013030e+00
         vertex 2.051500e+01 -5.340834e+00 3.799038e+00
      endloop
   endfacet
   facet normal 4.999996e-01 0.000000e+00 8.660257e-01
      outer loop
         vertex 2.241407e+01 -5.340834e+00 3.464181e+00
         vertex 2.152547e+01 -5.340834e+00 3.977212e+00
         vertex 2.152547e+01 -1.834083e+01 3.977212e+00
      endloop
   endfacet
   facet normal -1.736483e-01 0.000000e+00 -9.848077e-01
      outer loop
         vertex 2.152547e+01 -1.834083e+01 1.022788e+00
         vertex 2.051500e+01 -1.834083e+01 1.200962e+00
         vertex 2.051500e+01 -5.340834e+00 1.200962e+00
      endloop
   endfacet
   facet normal -1.736483e-01 0.000000e+00 9.848077e-01
      outer loop
         vertex 2.152547e+01 -1.834083e+01 3.977212e+00
         vertex 2.051500e+01 -5.340834e+00 3.799038e+00
         vertex 2.051500e+01 -1.834083e+01 3.799038e+00
      endloop
   endfacet
   facet normal 4.999995e-01 0.000000e+00 -8.660257e-01
      outer loop
         vertex 2.152547e+01 -5.340834e+00 1.022788e+00
         vertex 2.241407e+01 -5.340834e+00 1.535819e+00
         vertex 2.241407e+01 -1.834083e+01 1.535819e+00
      endloop
   endfacet
   facet normal 9.396927e-01 0.000000e+00 -3.420199e-01
      outer loop
         vertex 2.276500e+01 4.865917e+01 2.500000e+00
         vertex 2.276500e+01 3.465917e+01 2.500000e+00
         vertex 2.241407e+01 3.465917e+01 1.535819e+00
      endloop
   endfacet
   facet normal -1.736483e-01 0.000000e+00 -9.848077e-01
      outer loop
         vertex 2.152547e+01 3.465917e+01 1.022788e+00
         vertex 2.051500e+01 3.465917e+01 1.200962e+00
         vertex 2.051500e+01 4.865917e+01 1.200962e+00
      endloop
   endfacet
   facet normal -1.000000e+00 0.000000e+00 0.000000e+00
      outer loop
         vertex 1.985546e+01 3.465917e+01 1.986970e+00
         vertex 1.985546e+01 3.465917e+01 3.013030e+00
         vertex 1.985546e+01 4.865917e+01 3.013030e+00
      endloop
   endfacet
   facet normal -1.736483e-01 0.000000e+00 9.848077e-01
      outer loop
         vertex 2.051500e+01 3.465917e+01 3.799038e+00
         vertex 2.152547e+01 3.465917e+01 3.977212e+00
         vertex 2.152547e+01 4.865917e+01 3.977212e+00
      endloop
   endfacet
   facet normal 9.396927e-01 -0.000000e+00 3.420199e-01
      outer loop
         vertex 2.241407e+01 3.465917e+01 3.464181e+00
         vertex 2.276500e+01 3.465917e+01 2.500000e+00
         vertex 2.276500e+01 4.865917e+01 2.500000e+00
      endloop
   endfacet
   facet normal 4.999996e-01 0.000000e+00 8.660257e-01
      outer loop
         vertex 2.241407e+01 4.865917e+01 3.464181e+00
         vertex 2.152547e+01 4.865917e+01 3.977212e+00
         vertex 2.152547e+01 3.465917e+01 3.977212e+00
      endloop
   endfacet
   facet normal -7.660448e-01 0.000000e+00 6.427872e-01
      outer loop
         vertex 2.051500e+01 4.865917e+01 3.799038e+00
         vertex 1.985546e+01 4.865917e+01 3.013030e+00
         vertex 1.985546e+01 3.465917e+01 3.013030e+00
      endloop
   endfacet
   facet normal -7.660448e-01 -0.000000e+00 -6.427872e-01
      outer loop
         vertex 1.985546e+01 4.865917e+01 1.986970e+00
         vertex 2.051500e+01 4.865917e+01 1.200962e+00
         vertex 2.051500e+01 3.465917e+01 1.200962e+00
      endloop
   endfacet
   facet normal 4.999995e-01 0.000000e+00 -8.660257e-01
      outer loop
         vertex 2.152547e+01 4.865917e+01 1.022788e+00
         vertex 2.241407e+01 4.865917e+01 1.535819e+00
         vertex 2.241407e+01 3.465917e+01 1.535819e+00
      endloop
   endfacet
   facet normal 9.396927e-01 0.000000e+00 -3.420199e-01
      outer loop
         vertex 2.276500e+01 4.865917e+01 2.500000e+00
         vertex 2.241407e+01 3.465917e+01 1.535819e+00
         vertex 2.241407e+01 4.865917e+01 1.535819e+00
      endloop
   endfacet
   facet normal -1.736483e-01 0.000000e+00 9.848077e-01
      outer loop
         vertex 2.051500e+01 3.465917e+01 3.799038e+00
         vertex 2.152547e+01 4.865917e+01 3.977212e+00
         vertex 2.051500e+01 4.865917e+01 3.799038e+00
      endloop
   endfacet
   facet normal -7.660448e-01 0.000000e+00 6.427872e-01
      outer loop
         vertex 2.051500e+01 4.865917e+01 3.799038e+00
         vertex 1.985546e+01 3.465917e+01 3.013030e+00
         vertex 2.051500e+01 3.465917e+01 3.799038e+00
      endloop
   endfacet
   facet normal 4.999995e-01 0.000000e+00 -8.660257e-01
      outer loop
         vertex 2.241407e+01 3.465917e+01 1.535819e+00
         vertex 2.152547e+01 3.465917e+01 1.022788e+00
         vertex 2.152547e+01 4.865917e+01 1.022788e+00
      endloop
   endfacet
   facet normal 4.999996e-01 -0.000000e+00 8.660257e-01
      outer loop
         vertex 2.152547e+01 3.465917e+01 3.977212e+00
         vertex 2.241407e+01 3.465917e+01 3.464181e+00
         vertex 2.241407e+01 4.865917e+01 3.464181e+00
      endloop
   endfacet
   facet normal -1.000000e+00 0.000000e+00 0.000000e+00
      outer loop
         vertex 1.985546e+01 4.865917e+01 3.013030e+00
         vertex 1.985546e+01 4.865917e+01 1.986970e+00
         vertex 1.985546e+01 3.465917e+01 1.986970e+00
      endloop
   endfacet
   facet normal -1.736483e-01 0.000000e+00 -9.848077e-01
      outer loop
         vertex 2.152547e+01 3.465917e+01 1.022788e+00
         vertex 2.051500e+01 4.865917e+01 1.200962e+00
         vertex 2.152547e+01 4.865917e+01 1.022788e+00
      endloop
   endfacet
   facet normal 9.396927e-01 -0.000000e+00 3.420199e-01
      outer loop
         vertex 2.241407e+01 4.865917e+01 3.464181e+00
         vertex 2.241407e+01 3.465917e+01 3.464181e+00
         vertex 2.276500e+01 4.865917e+01 2.500000e+00
      endloop
   endfacet
   facet normal -7.660448e-01 0.000000e+00 -6.427872e-01
      outer loop
         vertex 2.051500e+01 3.465917e+01 1.200962e+00
         vertex 1.985546e+01 3.465917e+01 1.986970e+00
         vertex 1.985546e+01 4.865917e+01 1.986970e+00
      endloop
   endfacet
   facet normal 1.680141e-01 0.000000e+00 9.857846e-01
      outer loop
         vertex 2.155390e+01 2.465917e+01 1.100000e+01
         vertex 2.436954e+01 3.465917e+01 1.052011e+01
         vertex 2.155390e+01 3.465917e+01 1.100000e+01
      endloop
   endfacet
   facet normal 7.473565e-01 0.000000e+00 6.644232e-01
      outer loop
         vertex 2.686725e+01 2.465917e+01 9.134630e+00
         vertex 2.876500e+01 3.465917e+01 7.000000e+00
         vertex 2.686725e+01 3.465917e+01 9.134630e+00
      endloop
   endfacet
   facet normal 7.473565e-01 0.000000e+00 6.644232e-01
      outer loop
         vertex 2.876500e+01 3.465917e+01 7.000000e+00
         vertex 2.686725e+01 2.465917e+01 9.134630e+00
         vertex 2.876500e+01 2.465917e+01 7.000000e+00
      endloop
   endfacet
   facet normal 1.680141e-01 0.000000e+00 9.857846e-01
      outer loop
         vertex 2.436954e+01 2.465917e+01 1.052011e+01
         vertex 2.436954e+01 3.465917e+01 1.052011e+01
         vertex 2.155390e+01 2.465917e+01 1.100000e+01
      endloop
   endfacet
   facet normal 4.850712e-01 0.000000e+00 8.744746e-01
      outer loop
         vertex 2.436954e+01 2.465917e+01 1.052011e+01
         vertex 2.686725e+01 3.465917e+01 9.134630e+00
         vertex 2.436954e+01 3.465917e+01 1.052011e+01
      endloop
   endfacet
   facet normal 4.850712e-01 -0.000000e+00 8.744746e-01
      outer loop
         vertex 2.436954e+01 2.465917e+01 1.052011e+01
         vertex 2.686725e+01 2.465917e+01 9.134630e+00
         vertex 2.686725e+01 3.465917e+01 9.134630e+00
      endloop
   endfacet
   facet normal 0.000000e+00 0.000000e+00 1.000000e+00
      outer loop
         vertex 2.876500e+01 2.465917e+01 7.000000e+00
         vertex 3.976500e+01 3.465917e+01 7.000000e+00
         vertex 2.876500e+01 3.465917e+01 7.000000e+00
      endloop
   endfacet
   facet normal 0.000000e+00 0.000000e+00 1.000000e+00
      outer loop
         vertex 3.976500e+01 3.465917e+01 7.000000e+00
         vertex 2.876500e+01 2.465917e+01 7.000000e+00
         vertex 3.976500e+01 2.465917e+01 7.000000e+00
      endloop
   endfacet
   facet normal 1.000000e+00 0.000000e+00 0.000000e+00
      outer loop
         vertex 3.976500e+01 3.465917e+01 -2.000000e+01
         vertex 3.976500e+01 3.465917e+01 7.000000e+00
         vertex 3.976500e+01 2.465917e+01 0.000000e+00
      endloop
   endfacet
   facet normal 1.000000e+00 0.000000e+00 0.000000e+00
      outer loop
         vertex 3.976500e+01 2.465917e+01 7.000000e+00
         vertex 3.976500e+01 2.465917e+01 0.000000e+00
         vertex 3.976500e+01 3.465917e+01 7.000000e+00
      endloop
   endfacet
   facet normal 1.000000e+00 0.000000e+00 0.000000e+00
      outer loop
         vertex 3.976500e+01 -5.340834e+00 -2.000000e+01
         vertex 3.976500e+01 3.465917e+01 -2.000000e+01
         vertex 3.976500e+01 2.465917e+01 0.000000e+00
      endloop
   endfacet
   facet normal 1.000000e+00 -0.000000e+00 0.000000e+00
      outer loop
         vertex 3.976500e+01 2.465917e+01 0.000000e+00
         vertex 3.976500e+01 -5.340834e+00 0.000000e+00
         vertex 3.976500e+01 -5.340834e+00 -2.000000e+01
      endloop
   endfacet
   facet normal 0.000000e+00 0.000000e+00 -1.000000e+00
      outer loop
         vertex 6.764999e+00 -5.340834e+00 -2.000000e+01
         vertex 6.764999e+00 3.465917e+01 -2.000000e+01
         vertex 3.976500e+01 3.465917e+01 -2.000000e+01
      endloop
   endfacet
   facet normal 0.000000e+00 0.000000e+00 -1.000000e+00
      outer loop
         vertex 3.976500e+01 -5.340834e+00 -2.000000e+01
         vertex 6.764999e+00 -5.340834e+00 -2.000000e+01
         vertex 3.976500e+01 3.465917e+01 -2.000000e+01
      endloop
   endfacet
   facet normal -1.000000e+00 0.000000e+00 0.000000e+00
      outer loop
         vertex 6.764999e+00 -5.340834e+00 -2.000000e+01
         vertex 6.764999e+00 -5.340834e+00 -2.000000e+00
         vertex 6.764999e+00 3.465917e+01 -2.000000e+01
      endloop
   endfacet
   facet normal -1.000000e+00 0.000000e+00 0.000000e+00
      outer loop
         vertex 6.764999e+00 3.465917e+01 -2.000000e+00
         vertex 6.764999e+00 3.465917e+01 -2.000000e+01
         vertex 6.764999e+00 -5.340834e+00 -2.000000e+00
      endloop
   endfacet
   facet normal 0.000000e+00 0.000000e+00 1.000000e+00
      outer loop
         vertex 1.276500e+01 -5.340834e+00 -2.000000e+00
         vertex 1.276500e+01 3.465917e+01 -2.000000e+00
         vertex 6.764999e+00 3.465917e+01 -2.000000e+00
      endloop
   endfacet
   facet normal 0.000000e+00 0.000000e+00 1.000000e+00
      outer loop
         vertex 1.276500e+01 -5.340834e+00 -2.000000e+00
         vertex 6.764999e+00 3.465917e+01 -2.000000e+00
         vertex 6.764999e+00 -5.340834e+00 -2.000000e+00
      endloop
   endfacet
   facet normal -1.000000e+00 0.000000e+00 0.000000e+00
      outer loop
         vertex 1.276500e+01 3.465917e+01 2.500000e+00
         vertex 1.276500e+01 2.465917e+01 0.000000e+00
         vertex 1.276500e+01 2.465917e+01 2.500000e+00
      endloop
   endfacet
   facet normal -1.000000e+00 0.000000e+00 0.000000e+00
      outer loop
         vertex 1.276500e+01 2.465917e+01 0.000000e+00
         vertex 1.276500e+01 -5.340834e+00 -2.000000e+00
         vertex 1.276500e+01 -5.340834e+00 0.000000e+00
      endloop
   endfacet
   facet normal -1.000000e+00 0.000000e+00 0.000000e+00
      outer loop
         vertex 1.276500e+01 3.465917e+01 -2.000000e+00
         vertex 1.276500e+01 2.465917e+01 0.000000e+00
         vertex 1.276500e+01 3.465917e+01 2.500000e+00
      endloop
   endfacet
   facet normal -1.000000e+00 0.000000e+00 0.000000e+00
      outer loop
         vertex 1.276500e+01 2.465917e+01 0.000000e+00
         vertex 1.276500e+01 3.465917e+01 -2.000000e+00
         vertex 1.276500e+01 -5.340834e+00 -2.000000e+00
      endloop
   endfacet
   facet normal -1.564344e-01 0.000000e+00 9.876883e-01
      outer loop
         vertex 1.863836e+01 3.465917e+01 1.058398e+01
         vertex 1.863836e+01 2.465917e+01 1.058398e+01
         vertex 2.126500e+01 2.465917e+01 1.100000e+01
      endloop
   endfacet
   facet normal -7.071068e-01 0.000000e+00 7.071068e-01
      outer loop
         vertex 1.438835e+01 3.465917e+01 7.496175e+00
         vertex 1.438835e+01 2.465917e+01 7.496175e+00
         vertex 1.626882e+01 2.465917e+01 9.376644e+00
      endloop
   endfacet
   facet normal -9.876884e-01 0.000000e+00 1.564344e-01
      outer loop
         vertex 1.276500e+01 3.465917e+01 2.500000e+00
         vertex 1.276500e+01 2.465917e+01 2.500000e+00
         vertex 1.318102e+01 2.465917e+01 5.126645e+00
      endloop
   endfacet
   facet normal -8.910066e-01 0.000000e+00 4.539904e-01
      outer loop
         vertex 1.438835e+01 2.465917e+01 7.496175e+00
         vertex 1.438835e+01 3.465917e+01 7.496175e+00
         vertex 1.318102e+01 3.465917e+01 5.126645e+00
      endloop
   endfacet
   facet normal -4.539904e-01 0.000000e+00 8.910066e-01
      outer loop
         vertex 1.863836e+01 2.465917e+01 1.058398e+01
         vertex 1.863836e+01 3.465917e+01 1.058398e+01
         vertex 1.626882e+01 3.465917e+01 9.376644e+00
      endloop
   endfacet
   facet normal -1.564344e-01 0.000000e+00 9.876883e-01
      outer loop
         vertex 1.863836e+01 3.465917e+01 1.058398e+01
         vertex 2.126500e+01 2.465917e+01 1.100000e+01
         vertex 2.126500e+01 3.465917e+01 1.100000e+01
      endloop
   endfacet
   facet normal -8.910066e-01 0.000000e+00 4.539904e-01
      outer loop
         vertex 1.318102e+01 2.465917e+01 5.126645e+00
         vertex 1.438835e+01 2.465917e+01 7.496175e+00
         vertex 1.318102e+01 3.465917e+01 5.126645e+00
      endloop
   endfacet
   facet normal -4.539904e-01 0.000000e+00 8.910066e-01
      outer loop
         vertex 1.626882e+01 3.465917e+01 9.376644e+00
         vertex 1.626882e+01 2.465917e+01 9.376644e+00
         vertex 1.863836e+01 2.465917e+01 1.058398e+01
      endloop
   endfacet
   facet normal -7.071068e-01 0.000000e+00 7.071068e-01
      outer loop
         vertex 1.626882e+01 2.465917e+01 9.376644e+00
         vertex 1.626882e+01 3.465917e+01 9.376644e+00
         vertex 1.438835e+01 3.465917e+01 7.496175e+00
      endloop
   endfacet
   facet normal -9.876884e-01 0.000000e+00 1.564344e-01
      outer loop
         vertex 1.276500e+01 3.465917e+01 2.500000e+00
         vertex 1.318102e+01 2.465917e+01 5.126645e+00
         vertex 1.318102e+01 3.465917e+01 5.126645e+00
      endloop
   endfacet
   facet normal 0.000000e+00 0.000000e+00 1.000000e+00
      outer loop
         vertex 2.126500e+01 3.465917e+01 1.100000e+01
         vertex 2.126500e+01 2.465917e+01 1.100000e+01
         vertex 2.155390e+01 2.465917e+01 1.100000e+01
      endloop
   endfacet
   facet normal 0.000000e+00 -0.000000e+00 1.000000e+00
      outer loop
         vertex 2.126500e+01 3.465917e+01 1.100000e+01
         vertex 2.155390e+01 2.465917e+01 1.100000e+01
         vertex 2.155390e+01 3.465917e+01 1.100000e+01
      endloop
   endfacet
   facet normal 0.000000e+00 -0.000000e+00 1.000000e+00
      outer loop
         vertex 2.476500e+01 2.465917e+01 0.000000e+00
         vertex 3.976500e+01 -5.340834e+00 0.000000e+00
         vertex 3.976500e+01 2.465917e+01 0.000000e+00
      endloop
   endfacet
   facet normal 0.000000e+00 0.000000e+00 1.000000e+00
      outer loop
         vertex 3.976500e+01 -5.340834e+00 0.000000e+00
         vertex 2.476500e+01 2.465917e+01 0.000000e+00
         vertex 2.476500e+01 -5.340834e+00 0.000000e+00
      endloop
   endfacet
   facet normal 1.000000e+00 0.000000e+00 -0.000000e+00
      outer loop
         vertex 2.476500e+01 -5.340834e+00 0.000000e+00
         vertex 2.476500e+01 2.465917e+01 0.000000e+00
         vertex 2.476500e+01 2.465917e+01 5.000000e+00
      endloop
   endfacet
   facet normal 1.000000e+00 0.000000e+00 0.000000e+00
      outer loop
         vertex 2.476500e+01 -5.340834e+00 5.000000e+00
         vertex 2.476500e+01 -5.340834e+00 0.000000e+00
         vertex 2.476500e+01 2.465917e+01 5.000000e+00
      endloop
   endfacet
   facet normal 0.000000e+00 0.000000e+00 1.000000e+00
      outer loop
         vertex 2.476500e+01 -5.340834e+00 5.000000e+00
         vertex 2.476500e+01 2.465917e+01 5.000000e+00
         vertex 1.776500e+01 -2.043176e-01 5.000000e+00
      endloop
   endfacet
   facet normal 0.000000e+00 0.000000e+00 1.000000e+00
      outer loop
         vertex 1.776500e+01 2.465917e+01 5.000000e+00
         vertex 1.776500e+01 -2.043176e-01 5.000000e+00
         vertex 2.476500e+01 2.465917e+01 5.000000e+00
      endloop
   endfacet
   facet normal 0.000000e+00 0.000000e+00 1.000000e+00
      outer loop
         vertex 1.676500e+01 -5.340834e+00 5.000000e+00
         vertex 2.476500e+01 -5.340834e+00 5.000000e+00
         vertex 1.776500e+01 -2.043176e-01 5.000000e+00
      endloop
   endfacet
   facet normal -0.000000e+00 0.000000e+00 1.000000e+00
      outer loop
         vertex 1.776500e+01 -2.043176e-01 5.000000e+00
         vertex 1.676500e+01 -3.408336e-01 5.000000e+00
         vertex 1.676500e+01 -5.340834e+00 5.000000e+00
      endloop
   endfacet
   facet normal -1.000000e+00 0.000000e+00 0.000000e+00
      outer loop
         vertex 1.676500e+01 -3.408336e-01 5.000000e+00
         vertex 1.676500e+01 -3.408336e-01 0.000000e+00
         vertex 1.676500e+01 -5.340834e+00 0.000000e+00
      endloop
   endfacet
   facet normal -1.000000e+00 -0.000000e+00 0.000000e+00
      outer loop
         vertex 1.676500e+01 -5.340834e+00 5.000000e+00
         vertex 1.676500e+01 -3.408336e-01 5.000000e+00
         vertex 1.676500e+01 -5.340834e+00 0.000000e+00
      endloop
   endfacet
   facet normal 0.000000e+00 0.000000e+00 1.000000e+00
      outer loop
         vertex 1.676500e+01 -3.408336e-01 0.000000e+00
         vertex 1.776500e+01 2.465917e+01 0.000000e+00
         vertex 1.276500e+01 2.465917e+01 0.000000e+00
      endloop
   endfacet
   facet normal 0.000000e+00 0.000000e+00 1.000000e+00
      outer loop
         vertex 1.776500e+01 2.465917e+01 0.000000e+00
         vertex 1.676500e+01 -3.408336e-01 0.000000e+00
         vertex 1.776500e+01 -2.043176e-01 0.000000e+00
      endloop
   endfacet
   facet normal 0.000000e+00 0.000000e+00 1.000000e+00
      outer loop
         vertex 1.676500e+01 -3.408336e-01 0.000000e+00
         vertex 1.276500e+01 2.465917e+01 0.000000e+00
         vertex 1.276500e+01 -5.340834e+00 0.000000e+00
      endloop
   endfacet
   facet normal 0.000000e+00 -0.000000e+00 1.000000e+00
      outer loop
         vertex 1.276500e+01 -5.340834e+00 0.000000e+00
         vertex 1.676500e+01 -5.340834e+00 0.000000e+00
         vertex 1.676500e+01 -3.408336e-01 0.000000e+00
      endloop
   endfacet
   facet normal 0.000000e+00 -1.000000e+00 0.000000e+00
      outer loop
         vertex 2.241407e+01 -1.834083e+01 1.535819e+00
         vertex 2.276500e+01 -1.834083e+01 2.500000e+00
         vertex 2.152547e+01 -1.834083e+01 1.022788e+00
      endloop
   endfacet
   facet normal 0.000000e+00 -1.000000e+00 0.000000e+00
      outer loop
         vertex 2.241407e+01 -1.834083e+01 3.464181e+00
         vertex 2.152547e+01 -1.834083e+01 3.977212e+00
         vertex 2.276500e+01 -1.834083e+01 2.500000e+00
      endloop
   endfacet
   facet normal 0.000000e+00 -1.000000e+00 0.000000e+00
      outer loop
         vertex 1.985546e+01 -1.834083e+01 3.013030e+00
         vertex 1.985546e+01 -1.834083e+01 1.986970e+00
         vertex 2.276500e+01 -1.834083e+01 2.500000e+00
      endloop
   endfacet
   facet normal 0.000000e+00 -1.000000e+00 0.000000e+00
      outer loop
         vertex 2.051500e+01 -1.834083e+01 1.200962e+00
         vertex 2.152547e+01 -1.834083e+01 1.022788e+00
         vertex 1.985546e+01 -1.834083e+01 1.986970e+00
      endloop
   endfacet
   facet normal 0.000000e+00 -1.000000e+00 0.000000e+00
      outer loop
         vertex 1.985546e+01 -1.834083e+01 3.013030e+00
         vertex 2.276500e+01 -1.834083e+01 2.500000e+00
         vertex 2.152547e+01 -1.834083e+01 3.977212e+00
      endloop
   endfacet
   facet normal 0.000000e+00 -1.000000e+00 0.000000e+00
      outer loop
         vertex 1.985546e+01 -1.834083e+01 3.013030e+00
         vertex 2.152547e+01 -1.834083e+01 3.977212e+00
         vertex 2.051500e+01 -1.834083e+01 3.799038e+00
      endloop
   endfacet
   facet normal 0.000000e+00 -1.000000e+00 0.000000e+00
      outer loop
         vertex 2.152547e+01 -1.834083e+01 1.022788e+00
         vertex 2.276500e+01 -1.834083e+01 2.500000e+00
         vertex 1.985546e+01 -1.834083e+01 1.986970e+00
      endloop
   endfacet
   facet normal 0.000000e+00 1.000000e+00 0.000000e+00
      outer loop
         vertex 2.152547e+01 4.865917e+01 3.977212e+00
         vertex 2.241407e+01 4.865917e+01 3.464181e+00
         vertex 2.276500e+01 4.865917e+01 2.500000e+00
      endloop
   endfacet
   facet normal 0.000000e+00 1.000000e+00 0.000000e+00
      outer loop
         vertex 2.152547e+01 4.865917e+01 3.977212e+00
         vertex 1.985546e+01 4.865917e+01 3.013030e+00
         vertex 2.051500e+01 4.865917e+01 3.799038e+00
      endloop
   endfacet
   facet normal 0.000000e+00 1.000000e+00 0.000000e+00
      outer loop
         vertex 1.985546e+01 4.865917e+01 1.986970e+00
         vertex 2.152547e+01 4.865917e+01 1.022788e+00
         vertex 2.051500e+01 4.865917e+01 1.200962e+00
      endloop
   endfacet
   facet normal 0.000000e+00 1.000000e+00 0.000000e+00
      outer loop
         vertex 1.985546e+01 4.865917e+01 3.013030e+00
         vertex 2.152547e+01 4.865917e+01 3.977212e+00
         vertex 2.276500e+01 4.865917e+01 2.500000e+00
      endloop
   endfacet
   facet normal 0.000000e+00 1.000000e+00 0.000000e+00
      outer loop
         vertex 1.985546e+01 4.865917e+01 1.986970e+00
         vertex 1.985546e+01 4.865917e+01 3.013030e+00
         vertex 2.276500e+01 4.865917e+01 2.500000e+00
      endloop
   endfacet
   facet normal 0.000000e+00 1.000000e+00 -0.000000e+00
      outer loop
         vertex 2.276500e+01 4.865917e+01 2.500000e+00
         vertex 2.241407e+01 4.865917e+01 1.535819e+00
         vertex 2.152547e+01 4.865917e+01 1.022788e+00
      endloop
   endfacet
   facet normal -0.000000e+00 1.000000e+00 0.000000e+00
      outer loop
         vertex 2.152547e+01 4.865917e+01 1.022788e+00
         vertex 1.985546e+01 4.865917e+01 1.986970e+00
         vertex 2.276500e+01 4.865917e+01 2.500000e+00
      endloop
   endfacet
   facet normal 0.000000e+00 -1.000000e+00 0.000000e+00
      outer loop
         vertex 3.976500e+01 2.465917e+01 7.000000e+00
         vertex 2.876500e+01 2.465917e+01 7.000000e+00
         vertex 3.976500e+01 2.465917e+01 0.000000e+00
      endloop
   endfacet
   facet normal 0.000000e+00 -1.000000e+00 0.000000e+00
      outer loop
         vertex 2.686725e+01 2.465917e+01 9.134630e+00
         vertex 2.436954e+01 2.465917e+01 1.052011e+01
         vertex 2.476500e+01 2.465917e+01 5.000000e+00
      endloop
   endfacet
   facet normal 0.000000e+00 -1.000000e+00 0.000000e+00
      outer loop
         vertex 2.155390e+01 2.465917e+01 1.100000e+01
         vertex 2.126500e+01 2.465917e+01 1.100000e+01
         vertex 2.476500e+01 2.465917e+01 5.000000e+00
      endloop
   endfacet
   facet normal 0.000000e+00 -1.000000e+00 0.000000e+00
      outer loop
         vertex 1.863836e+01 2.465917e+01 1.058398e+01
         vertex 1.626882e+01 2.465917e+01 9.376644e+00
         vertex 1.776500e+01 2.465917e+01 5.000000e+00
      endloop
   endfacet
   facet normal 0.000000e+00 -1.000000e+00 0.000000e+00
      outer loop
         vertex 1.438835e+01 2.465917e+01 7.496175e+00
         vertex 1.318102e+01 2.465917e+01 5.126645e+00
         vertex 1.776500e+01 2.465917e+01 5.000000e+00
      endloop
   endfacet
   facet normal 0.000000e+00 -1.000000e+00 0.000000e+00
      outer loop
         vertex 1.276500e+01 2.465917e+01 2.500000e+00
         vertex 1.276500e+01 2.465917e+01 0.000000e+00
         vertex 1.776500e+01 2.465917e+01 0.000000e+00
      endloop
   endfacet
   facet normal 0.000000e+00 -1.000000e+00 0.000000e+00
      outer loop
         vertex 1.776500e+01 2.465917e+01 5.000000e+00
         vertex 2.476500e+01 2.465917e+01 5.000000e+00
         vertex 2.126500e+01 2.465917e+01 1.100000e+01
      endloop
   endfacet
   facet normal 0.000000e+00 -1.000000e+00 0.000000e+00
      outer loop
         vertex 2.476500e+01 2.465917e+01 0.000000e+00
         vertex 3.976500e+01 2.465917e+01 0.000000e+00
         vertex 2.876500e+01 2.465917e+01 7.000000e+00
      endloop
   endfacet
   facet normal -0.000000e+00 -1.000000e+00 -0.000000e+00
      outer loop
         vertex 2.476500e+01 2.465917e+01 5.000000e+00
         vertex 2.436954e+01 2.465917e+01 1.052011e+01
         vertex 2.155390e+01 2.465917e+01 1.100000e+01
      endloop
   endfacet
   facet normal 0.000000e+00 -1.000000e+00 0.000000e+00
      outer loop
         vertex 1.438835e+01 2.465917e+01 7.496175e+00
         vertex 1.776500e+01 2.465917e+01 5.000000e+00
         vertex 1.626882e+01 2.465917e+01 9.376644e+00
      endloop
   endfacet
   facet normal 0.000000e+00 -1.000000e+00 0.000000e+00
      outer loop
         vertex 2.476500e+01 2.465917e+01 0.000000e+00
         vertex 2.876500e+01 2.465917e+01 7.000000e+00
         vertex 2.476500e+01 2.465917e+01 5.000000e+00
      endloop
   endfacet
   facet normal 0.000000e+00 -1.000000e+00 -0.000000e+00
      outer loop
         vertex 2.876500e+01 2.465917e+01 7.000000e+00
         vertex 2.686725e+01 2.465917e+01 9.134630e+00
         vertex 2.476500e+01 2.465917e+01 5.000000e+00
      endloop
   endfacet
   facet normal 0.000000e+00 -1.000000e+00 0.000000e+00
      outer loop
         vertex 1.318102e+01 2.465917e+01 5.126645e+00
         vertex 1.276500e+01 2.465917e+01 2.500000e+00
         vertex 1.776500e+01 2.465917e+01 5.000000e+00
      endloop
   endfacet
   facet normal 0.000000e+00 -1.000000e+00 0.000000e+00
      outer loop
         vertex 1.863836e+01 2.465917e+01 1.058398e+01
         vertex 1.776500e+01 2.465917e+01 5.000000e+00
         vertex 2.126500e+01 2.465917e+01 1.100000e+01
      endloop
   endfacet
   facet normal 0.000000e+00 -1.000000e+00 -0.000000e+00
      outer loop
         vertex 1.776500e+01 2.465917e+01 0.000000e+00
         vertex 1.776500e+01 2.465917e+01 5.000000e+00
         vertex 1.276500e+01 2.465917e+01 2.500000e+00
      endloop
   endfacet
   facet normal -1.000000e+00 -0.000000e+00 -0.000000e+00
      outer loop
         vertex 1.776500e+01 -2.043176e-01 5.000000e+00
         vertex 1.776500e+01 2.465917e+01 5.000000e+00
         vertex 1.776500e+01 2.465917e+01 0.000000e+00
      endloop
   endfacet
   facet normal -1.000000e+00 0.000000e+00 0.000000e+00
      outer loop
         vertex 1.776500e+01 -2.043176e-01 0.000000e+00
         vertex 1.776500e+01 -2.043176e-01 5.000000e+00
         vertex 1.776500e+01 2.465917e+01 0.000000e+00
      endloop
   endfacet
   facet normal -1.352614e-01 9.908100e-01 0.000000e+00
      outer loop
         vertex 1.776500e+01 -2.043176e-01 5.000000e+00
         vertex 1.776500e+01 -2.043176e-01 0.000000e+00
         vertex 1.676500e+01 -3.408336e-01 0.000000e+00
      endloop
   endfacet
   facet normal -1.352614e-01 9.908100e-01 0.000000e+00
      outer loop
         vertex 1.676500e+01 -3.408336e-01 5.000000e+00
         vertex 1.776500e+01 -2.043176e-01 5.000000e+00
         vertex 1.676500e+01 -3.408336e-01 0.000000e+00
      endloop
   endfacet
endsolid
